<?xml version="1.0" encoding="UTF-8" standalone="no"?>
<!-- Created with Inkscape (http://www.inkscape.org/) -->

<svg
   xmlns:dc="http://purl.org/dc/elements/1.1/"
   xmlns:cc="http://creativecommons.org/ns#"
   xmlns:rdf="http://www.w3.org/1999/02/22-rdf-syntax-ns#"
   xmlns:svg="http://www.w3.org/2000/svg"
   xmlns="http://www.w3.org/2000/svg"
   xmlns:sodipodi="http://sodipodi.sourceforge.net/DTD/sodipodi-0.dtd"
   xmlns:inkscape="http://www.inkscape.org/namespaces/inkscape"
   width="350"
   height="291.0625"
   id="svg21762"
   version="1.1"
   inkscape:version="0.48.2 r9819"
   sodipodi:docname="Logo Brigade de sapeurs-pompiers de Paris.svg">
  <defs
     id="defs21764" />
  <sodipodi:namedview
     id="base"
     pagecolor="#ffffff"
     bordercolor="#666666"
     borderopacity="1.0"
     inkscape:pageopacity="0.0"
     inkscape:pageshadow="2"
     inkscape:zoom="0.98994949"
     inkscape:cx="19.130221"
     inkscape:cy="-7.9018571"
     inkscape:document-units="px"
     inkscape:current-layer="layer1"
     showgrid="false"
     fit-margin-top="5"
     fit-margin-right="0"
     fit-margin-bottom="5"
     fit-margin-left="30"
     inkscape:window-width="1366"
     inkscape:window-height="706"
     inkscape:window-x="-8"
     inkscape:window-y="-8"
     inkscape:window-maximized="1" />
  <metadata
     id="metadata21767">
    <rdf:RDF>
      <cc:Work
         rdf:about="">
        <dc:format>image/svg+xml</dc:format>
        <dc:type
           rdf:resource="http://purl.org/dc/dcmitype/StillImage" />
        <dc:title />
      </cc:Work>
    </rdf:RDF>
  </metadata>
  <g
     inkscape:label="Calque 1"
     inkscape:groupmode="layer"
     id="layer1"
     transform="translate(-456.25,-209)">
    <path
       id="path22627"
       style="fill:#ed1c24;fill-opacity:1;fill-rule:nonzero;stroke:none"
       d="m 680.23849,489.38881 c 0,0 -77.84499,-78.61901 -39.54081,-234.90306 0,0 -10.78036,146.86934 64.73172,209.14531 27.50276,22.68007 38.22799,25.66048 49.86552,30.04653 l -85.51,0 10.45357,-4.28878 z"
       inkscape:connector-curvature="0" />
    <path
       id="path22629"
       style="fill:none;stroke:#ffffff;stroke-width:0.35752821;stroke-linecap:butt;stroke-linejoin:miter;stroke-miterlimit:4;stroke-opacity:1;stroke-dasharray:none"
       d="m 680.23849,489.38881 c 0,0 -77.84499,-78.61901 -39.54081,-234.90306 0,0 -10.78036,146.86934 64.73172,209.14531 27.50276,22.68007 38.22799,25.66048 49.86552,30.04653 l -85.51,0 10.45357,-4.28878 z"
       inkscape:connector-curvature="0" />
    <path
       id="path22631"
       style="fill:#ed1c24;fill-opacity:1;fill-rule:nonzero;stroke:none"
       d="m 536.09949,494.83108 c -10e-6,0 33.84026,-53.24532 101.47411,-280.77096 l -33.45673,151.12877 -25.10957,129.68789 -42.90781,-0.0456 z"
       inkscape:connector-curvature="0" />
    <path
       id="path22633"
       style="fill:none;stroke:#ffffff;stroke-width:0.35752821;stroke-linecap:butt;stroke-linejoin:miter;stroke-miterlimit:4;stroke-opacity:1;stroke-dasharray:none"
       d="m 536.09949,494.83108 c -10e-6,0 33.84026,-53.24532 101.47411,-280.77096 l -33.45673,151.12877 -25.10957,129.68789 -42.90781,-0.0456 z"
       inkscape:connector-curvature="0" />
    <path
       id="path22635"
       style="fill:#00adef;fill-opacity:1;fill-rule:nonzero;stroke:none"
       d="m 486.4155,463.73644 c 0,-4e-5 -3.00048,-65.60548 284.33942,-83.98627 -2e-5,-1e-5 29.9176,-0.84678 35.30135,-1.38548 0,-5e-5 -236.71786,60.7383 -275.69301,85.39752 l -43.94776,-0.0258 z"
       inkscape:connector-curvature="0" />
    <path
       id="path22637"
       style="fill:none;stroke:#ffffff;stroke-width:0.35797042;stroke-linecap:butt;stroke-linejoin:miter;stroke-miterlimit:4;stroke-opacity:1;stroke-dasharray:none"
       d="m 486.4155,463.73644 c 0,-4e-5 -3.00048,-65.60548 284.33942,-83.98627 -2e-5,-1e-5 29.9176,-0.84678 35.30135,-1.38548 0,-5e-5 -236.71786,60.7383 -275.69301,85.39752 l -43.94776,-0.0258 z"
       inkscape:connector-curvature="0" />
    <path
       id="path22639"
       style="fill:#ed1c24;fill-opacity:1;fill-rule:nonzero;stroke:none"
       d="m 542.14712,398.54088 c 0,0 -6.04763,-30.40478 157.38684,-41.55749 0,0 4.23123,0 19.6129,-0.76826 0,0 -129.27387,31.4694 -151.68344,42.26133 l -25.3163,0.0644 z"
       inkscape:connector-curvature="0" />
    <path
       id="path22641"
       style="fill:none;stroke:#ffffff;stroke-width:0.35752821;stroke-linecap:butt;stroke-linejoin:miter;stroke-miterlimit:4;stroke-opacity:1;stroke-dasharray:none"
       d="m 542.14712,398.54088 c 0,0 -6.04763,-30.40478 157.38684,-41.55749 0,0 4.23123,0 19.6129,-0.76826 0,0 -129.27387,31.4694 -151.68344,42.26133 l -25.3163,0.0644 z"
       inkscape:connector-curvature="0" />
    <path
       id="path22643"
       style="fill:#ed1c24;fill-opacity:1;fill-rule:nonzero;stroke:none"
       d="m 655.03463,240.93632 c 0,0 -74.60325,-3.84542 -37.68576,17.68991 36.91629,21.53404 27.6877,-2.30771 27.6877,-2.30771 0,0 0,3.84596 -2.3071,5.38419 1.51311,-1.00953 -23.84237,1.07511 -23.84237,-9.22969 0,-10.32825 36.14753,-11.5367 36.14753,-11.5367 z"
       inkscape:connector-curvature="0" />
    <path
       id="path22645"
       style="fill:none;stroke:#ffffff;stroke-width:0.35752821;stroke-linecap:butt;stroke-linejoin:miter;stroke-miterlimit:4;stroke-opacity:1;stroke-dasharray:none"
       d="m 655.03463,240.93632 c 0,0 -74.60325,-3.84542 -37.68576,17.68991 36.91629,21.53404 27.6877,-2.30771 27.6877,-2.30771 0,0 0,3.84596 -2.3071,5.38419 1.51311,-1.00953 -23.84237,1.07511 -23.84237,-9.22969 0,-10.32825 36.14753,-11.5367 36.14753,-11.5367 z"
       inkscape:connector-curvature="0" />
    <path
       style="fill:#000000;fill-opacity:1;fill-rule:nonzero;stroke:none"
       d="M 167.875 175.125 C 167.875 175.125 181.1512 243.07006 145.21875 269.65625 C 163.7647 258.23937 184.27999 234.06764 175.65625 183.75 C 175.65625 183.74998 173.20241 176.89356 205.8125 185.6875 C 205.8125 185.68748 194.63756 175.125 167.875 175.125 z M 180.1875 185.28125 C 179.9074 185.2877 179.75 185.3125 179.75 185.3125 L 181.9375 195.5 C 191.87682 191.62115 203.5 194.53123 203.5 194.53125 C 190.77271 185.62211 182.14817 185.23609 180.1875 185.28125 z M 163.125 188.71875 C 157.18927 188.87766 109.9597 192.05133 117.6875 253.1875 C 117.6875 253.1875 126.88646 197.69413 163.25 198.90625 L 163.75 188.71875 C 163.75 188.71875 163.52072 188.70816 163.125 188.71875 z M 243.4375 209.78125 C 243.43748 209.78125 231.32834 223.49072 214.46875 236.625 C 214.46875 236.625 234.27734 235.64044 256.53125 221.09375 L 243.4375 209.78125 z M 226.59375 219.84375 L 214.71875 229.03125 C 200.10551 237.42959 206.1875 257.15625 206.1875 257.15625 C 215.62209 289.31184 136.84373 283.31248 136.84375 283.3125 C 136.84375 283.3125 231.14526 296.12237 212.03125 259.6875 C 212.03125 259.6875 204.7213 243.97598 216.65625 230.8125 L 226.59375 219.84375 z M 188 220 L 177.8125 235.03125 C 177.8125 235.03125 181.91992 236.96669 183.375 237.9375 C 183.375 237.9375 182.42478 234.30295 188 220 z M 164.71875 229.1875 C 164.71875 229.18749 153.07556 248.12208 141.09375 247.78125 C 141.09375 247.78125 149.26587 251.54672 150.78125 256.0625 C 150.78122 256.06248 158.42682 247.82725 164.71875 229.1875 z M 175.625 245.4375 C 175.625 253.92122 159.875 266.78122 159.875 266.78125 C 178.05625 259.26612 182.90625 251.75 182.90625 251.75 C 178.29962 250.53915 175.625 245.43747 175.625 245.4375 z M 145.125 269.71875 C 133.93198 276.58542 123.45995 278.83093 120.5625 279.34375 C 130.57094 277.88759 138.65591 274.48199 145.125 269.71875 z "
       transform="translate(456.25,209)"
       id="path22647" />
    <path
       id="path22651"
       style="fill:none;stroke:#ffffff;stroke-width:0.37475961;stroke-linecap:butt;stroke-linejoin:miter;stroke-miterlimit:4;stroke-opacity:1;stroke-dasharray:none"
       d="m 619.99438,397.7164 c -4e-5,0 -54.30283,-0.72727 -46.05984,64.48465 0,0 9.21142,-55.51501 45.57496,-54.30289 l 0.48488,-10.18176 z"
       inkscape:connector-curvature="0" />
    <path
       id="path22655"
       style="fill:none;stroke:#ffffff;stroke-width:0.37475961;stroke-linecap:butt;stroke-linejoin:miter;stroke-miterlimit:4;stroke-opacity:1;stroke-dasharray:none"
       d="m 635.99376,394.32242 c 0,-4e-5 9.21152,-0.96971 23.757,9.21217 0,-2e-5 -11.63644,-2.9091 -21.57576,0.96975 l -2.18124,-10.18192 z"
       inkscape:connector-curvature="0" />
    <path
       id="path22659"
       style="fill:none;stroke:#ffffff;stroke-width:0.37475961;stroke-linecap:butt;stroke-linejoin:miter;stroke-miterlimit:4;stroke-opacity:1;stroke-dasharray:none"
       d="m 631.87261,454.44345 c 0,-3e-5 2.66595,5.09105 7.27258,6.3019 0,0 -4.84833,7.51631 -23.02958,15.03144 0,-3e-5 15.757,-12.84962 15.757,-21.33334 z"
       inkscape:connector-curvature="0" />
    <path
       id="path22663"
       style="fill:none;stroke:#ffffff;stroke-width:0.37475961;stroke-linecap:butt;stroke-linejoin:miter;stroke-miterlimit:4;stroke-opacity:1;stroke-dasharray:none"
       d="m 597.34602,456.76816 c 0,0 8.1651,3.7781 9.68048,8.29388 -3e-5,-2e-5 7.66209,-8.24575 13.95402,-26.8855 0,-10e-6 -11.65269,18.93245 -23.6345,18.59162 z"
       inkscape:connector-curvature="0" />
    <path
       id="path22667"
       style="fill:none;stroke:#ffffff;stroke-width:0.37475961;stroke-linecap:butt;stroke-linejoin:miter;stroke-miterlimit:4;stroke-opacity:1;stroke-dasharray:none"
       d="m 634.0543,444.01936 c 0,0 4.1207,1.93817 5.57578,2.90898 0,0 -0.96967,-3.6363 4.60555,-17.93925 l -10.18133,15.03027 z"
       inkscape:connector-curvature="0" />
    <path
       id="path22669"
       style="fill:#ffffff;fill-opacity:1;fill-rule:nonzero;stroke:none"
       d="m 674.78099,443.53328 c -3e-5,-2e-5 15.75744,-11.8776 15.75744,-13.08965 l 5.09092,7.03025 c 0,-1e-5 -11.87867,5.81816 -20.84836,6.0594 z"
       inkscape:connector-curvature="0" />
    <path
       id="path22671"
       style="fill:#ffffff;fill-opacity:1;fill-rule:nonzero;stroke:none"
       d="m 663.7736,406.05719 c 0,-3e-5 11.92084,4.52408 7.38619,23.19416 0,0 -0.10294,10.51203 11.78161,-3.60466 -4e-5,0 10.17,-9.85278 10.61506,-11.11526 0.72144,-2.05297 -13.82636,-13.77247 -25.9451,-18.97226 0,-2e-5 -3.44782,5.05228 -3.83776,10.49802 z"
       inkscape:connector-curvature="0" />
    <path
       id="path22673"
       style="fill:none;stroke:#000000;stroke-width:0.60591143;stroke-linecap:butt;stroke-linejoin:miter;stroke-miterlimit:4;stroke-opacity:1;stroke-dasharray:none"
       d="m 663.7736,406.05719 c 0,-3e-5 11.92084,4.52408 7.38619,23.19416 0,0 -0.10294,10.51203 11.78161,-3.60466 -4e-5,0 10.17,-9.85278 10.61506,-11.11526 0.72144,-2.05297 -13.82636,-13.77247 -25.9451,-18.97226 0,-2e-5 -3.44782,5.05228 -3.83776,10.49802 z"
       inkscape:connector-curvature="0" />
    <path
       id="path22677"
       style="fill:none;stroke:#ffffff;stroke-width:0.37475961;stroke-linecap:butt;stroke-linejoin:miter;stroke-miterlimit:4;stroke-opacity:1;stroke-dasharray:none"
       d="m 682.84541,428.85784 -9.92774,10.9559 c -11.93495,13.16348 -4.64473,28.86026 -4.64473,28.86026 19.11401,36.43487 -75.17821,23.62393 -75.17821,23.62393 -2e-5,-2e-5 78.77712,6.02305 69.34253,-26.13254 0,0 -6.08048,-19.72295 8.53276,-28.12129 l 11.87539,-9.18626 z"
       inkscape:connector-curvature="0" />
    <path
       id="path22679"
       style="fill:#ffffff;fill-opacity:1;fill-rule:nonzero;stroke:none"
       d="m 621.88586,383.81384 c 0,0 -74.03939,6.3417 -52.95039,76.19718 -2e-5,-2e-5 4.66815,10.98176 4.33448,29.41639 l -0.97385,-33.92405 c -6.81658,-62.60728 49.44854,-59.8552 49.44854,-59.8552 l 0.1412,-11.83432 z"
       inkscape:connector-curvature="0" />
    <path
       id="path22683"
       style="fill:none;stroke:#ffffff;stroke-width:0.37475961;stroke-linecap:butt;stroke-linejoin:miter;stroke-miterlimit:4;stroke-opacity:1;stroke-dasharray:none"
       d="m 662.04849,394.69956 c 0,-2e-5 -11.1515,-10.56942 -37.91406,-10.56942 0,0 18.61839,95.41764 -48.09718,104.33811 -3e-5,-2e-5 70.62263,-9.54003 55.85463,-95.70808 0,-2e-5 -2.45348,-6.85455 30.15661,1.93939 z"
       inkscape:connector-curvature="0" />
    <path
       id="path22685"
       style="fill:#000000;fill-opacity:1;fill-rule:nonzero;stroke:none"
       d="m 670.90219,399.41343 c 0,0 9.69691,1.93927 21.33334,13.57571 l -14.54539,15.03024 c 0,0 15.99989,-10.66674 -6.78795,-28.60595 z"
       inkscape:connector-curvature="0" />
  </g>
</svg>
