<?xml version="1.0" encoding="utf-8"?>
<!-- Generator: Adobe Illustrator 26.0.0, SVG Export Plug-In . SVG Version: 6.00 Build 0)  -->
<svg version="1.1" id="Layer_1" xmlns="http://www.w3.org/2000/svg" xmlns:xlink="http://www.w3.org/1999/xlink" x="0px" y="0px"
	 width="375.2px" height="330.6px" viewBox="0 0 375.2 330.6" style="enable-background:new 0 0 375.2 330.6;" xml:space="preserve"
	>
<style type="text/css">
	.st0{opacity:0.8;}
	.st1{fill:#FFFFFF;}
</style>
<g class="st0">
	<g>
		<g>
			<path class="st1" d="M5.7,273.2v21h12.5v4.8H0v-25.7H5.7z"/>
			<path class="st1" d="M14.6,273.2h6.3l6,10.2l6-10.2h6.3L29.7,289v9.9H24v-10L14.6,273.2z"/>
			<path class="st1" d="M57.9,280c-0.3-0.5-0.8-1-1.3-1.4c-0.5-0.4-1.1-0.7-1.7-1c-0.6-0.2-1.3-0.3-2-0.3c-1.3,0-2.4,0.2-3.2,0.7
				c-0.9,0.5-1.6,1.2-2.2,2c-0.6,0.8-1,1.8-1.2,2.8c-0.3,1.1-0.4,2.1-0.4,3.3c0,1.1,0.1,2.1,0.4,3.1c0.3,1,0.7,1.9,1.2,2.8
				c0.6,0.8,1.3,1.5,2.2,2c0.9,0.5,2,0.7,3.2,0.7c1.7,0,3.1-0.5,4-1.6c1-1.1,1.6-2.4,1.8-4.2h5.5c-0.1,1.6-0.5,3.1-1.1,4.4
				c-0.6,1.3-1.4,2.4-2.4,3.3c-1,0.9-2.1,1.6-3.5,2.1c-1.3,0.5-2.8,0.7-4.4,0.7c-2,0-3.7-0.3-5.3-1c-1.6-0.7-2.9-1.6-4-2.8
				c-1.1-1.2-1.9-2.6-2.5-4.2c-0.6-1.6-0.9-3.4-0.9-5.2c0-1.9,0.3-3.7,0.9-5.3c0.6-1.6,1.4-3.1,2.5-4.3s2.4-2.2,4-2.9
				c1.6-0.7,3.3-1,5.3-1c1.4,0,2.8,0.2,4,0.6c1.3,0.4,2.4,1,3.4,1.8c1,0.8,1.8,1.7,2.5,2.9c0.6,1.2,1.1,2.5,1.2,4h-5.5
				C58.4,281.2,58.2,280.6,57.9,280z"/>
			<path class="st1" d="M87.3,273.2v4.8H73.7v5.5h12.5v4.4H73.7v6.3h13.9v4.8H68v-25.7H87.3z M78.3,264.5l-3.8,6.4h3.6l5.9-6.4H78.3
				z"/>
			<path class="st1" d="M110.6,273.2v4.8H97v5.5h12.5v4.4H97v6.3h13.9v4.8H91.4v-25.7H110.6z"/>
			<path class="st1" d="M141.2,280c-0.3-0.5-0.8-1-1.3-1.4c-0.5-0.4-1.1-0.7-1.7-1c-0.6-0.2-1.3-0.3-2-0.3c-1.3,0-2.4,0.2-3.2,0.7
				c-0.9,0.5-1.6,1.2-2.2,2c-0.6,0.8-1,1.8-1.2,2.8c-0.3,1.1-0.4,2.1-0.4,3.3c0,1.1,0.1,2.1,0.4,3.1c0.3,1,0.7,1.9,1.2,2.8
				c0.6,0.8,1.3,1.5,2.2,2c0.9,0.5,2,0.7,3.2,0.7c1.7,0,3.1-0.5,4-1.6c1-1.1,1.6-2.4,1.8-4.2h5.5c-0.1,1.6-0.5,3.1-1.1,4.4
				c-0.6,1.3-1.4,2.4-2.4,3.3c-1,0.9-2.1,1.6-3.5,2.1c-1.3,0.5-2.8,0.7-4.4,0.7c-2,0-3.7-0.3-5.3-1c-1.6-0.7-2.9-1.6-4-2.8
				c-1.1-1.2-1.9-2.6-2.5-4.2c-0.6-1.6-0.9-3.4-0.9-5.2c0-1.9,0.3-3.7,0.9-5.3c0.6-1.6,1.4-3.1,2.5-4.3c1.1-1.2,2.4-2.2,4-2.9
				c1.6-0.7,3.3-1,5.3-1c1.4,0,2.8,0.2,4,0.6c1.3,0.4,2.4,1,3.4,1.8c1,0.8,1.8,1.7,2.5,2.9c0.6,1.2,1.1,2.5,1.2,4h-5.5
				C141.7,281.2,141.5,280.6,141.2,280z"/>
			<path class="st1" d="M157,273.2v21h12.5v4.8h-18.2v-25.7H157z"/>
			<path class="st1" d="M192,273.2v4.8h-13.6v5.5h12.5v4.4h-12.5v6.3h13.9v4.8h-19.5v-25.7H192z"/>
			<path class="st1" d="M204,273.2l6,17.7h0.1l5.7-17.7h8v25.7h-5.3v-18.2h-0.1l-6.3,18.2h-4.4l-6.3-18h-0.1v18h-5.3v-25.7H204z"/>
			<path class="st1" d="M247.9,273.2v4.8h-13.6v5.5h12.5v4.4h-12.5v6.3h13.9v4.8h-19.5v-25.7H247.9z"/>
			<path class="st1" d="M257.7,273.2l10.7,17.2h0.1v-17.2h5.3v25.7h-5.7l-10.7-17.2h-0.1v17.2H252v-25.7H257.7z"/>
			<path class="st1" d="M295.2,280c-0.3-0.5-0.8-1-1.3-1.4c-0.5-0.4-1.1-0.7-1.7-1c-0.6-0.2-1.3-0.3-2-0.3c-1.3,0-2.4,0.2-3.2,0.7
				c-0.9,0.5-1.6,1.2-2.2,2c-0.6,0.8-1,1.8-1.2,2.8c-0.3,1.1-0.4,2.1-0.4,3.3c0,1.1,0.1,2.1,0.4,3.1c0.3,1,0.7,1.9,1.2,2.8
				c0.6,0.8,1.3,1.5,2.2,2c0.9,0.5,2,0.7,3.2,0.7c1.7,0,3.1-0.5,4-1.6c1-1.1,1.6-2.4,1.8-4.2h5.5c-0.1,1.6-0.5,3.1-1.1,4.4
				c-0.6,1.3-1.4,2.4-2.4,3.3c-1,0.9-2.1,1.6-3.5,2.1c-1.3,0.5-2.8,0.7-4.4,0.7c-2,0-3.7-0.3-5.3-1c-1.6-0.7-2.9-1.6-4-2.8
				c-1.1-1.2-1.9-2.6-2.5-4.2c-0.6-1.6-0.9-3.4-0.9-5.2c0-1.9,0.3-3.7,0.9-5.3c0.6-1.6,1.4-3.1,2.5-4.3s2.4-2.2,4-2.9
				c1.6-0.7,3.3-1,5.3-1c1.4,0,2.8,0.2,4,0.6c1.3,0.4,2.4,1,3.4,1.8c1,0.8,1.8,1.7,2.5,2.9c0.6,1.2,1.1,2.5,1.2,4h-5.5
				C295.8,281.2,295.5,280.6,295.2,280z"/>
			<path class="st1" d="M324.6,273.2v4.8H311v5.5h12.5v4.4H311v6.3h13.9v4.8h-19.5v-25.7H324.6z"/>
			<path class="st1" d="M341.5,273.2l9.6,25.7h-5.9l-1.9-5.7h-9.6l-2,5.7H326l9.7-25.7H341.5z M341.9,288.9l-3.2-9.4h-0.1l-3.3,9.4
				H341.9z"/>
			<path class="st1" d="M372.3,296.9c-1.9,1.7-4.6,2.5-8.1,2.5c-3.5,0-6.2-0.8-8.1-2.5c-1.9-1.7-2.9-4.3-2.9-7.8v-16h5.7v16
				c0,0.7,0.1,1.4,0.2,2.1c0.1,0.7,0.4,1.3,0.8,1.8c0.4,0.5,0.9,0.9,1.6,1.3c0.7,0.3,1.6,0.5,2.8,0.5c2,0,3.4-0.4,4.2-1.4
				c0.8-0.9,1.2-2.3,1.2-4.2v-16h5.7v16C375.2,292.6,374.2,295.2,372.3,296.9z"/>
		</g>
		<g>
			<path class="st1" d="M96,314.6l9.2,13.3h0v-13.3h1.5v15.7H105L95.9,317h0v13.3h-1.5v-15.7H96z"/>
			<path class="st1" d="M133.7,314.6l6.2,15.7h-1.6l-1.9-4.9h-7.2l-1.9,4.9h-1.6l6.3-15.7H133.7z M135.8,324.2l-3-8.1l-3.1,8.1
				H135.8z"/>
			<path class="st1" d="M160.5,314.6l9.2,13.3h0v-13.3h1.5v15.7h-1.7l-9.2-13.3h0v13.3h-1.5v-15.7H160.5z"/>
			<path class="st1" d="M202.7,314.6v1.3h-5.5v14.4h-1.5v-14.4h-5.5v-1.3H202.7z"/>
			<path class="st1" d="M232.7,314.6v1.3h-9.3v5.7h8.8v1.3h-8.8v6.2h9.5v1.3h-11v-15.7H232.7z"/>
			<path class="st1" d="M253.5,327.2c0.3,0.5,0.6,1,1.1,1.3c0.5,0.3,1,0.6,1.6,0.7c0.6,0.1,1.3,0.2,2,0.2c0.4,0,0.9-0.1,1.3-0.2
				c0.5-0.1,0.9-0.3,1.4-0.6s0.8-0.6,1-1c0.3-0.4,0.4-0.9,0.4-1.5c0-0.4-0.1-0.8-0.3-1.1c-0.2-0.3-0.5-0.6-0.8-0.8
				c-0.3-0.2-0.7-0.4-1-0.5c-0.4-0.1-0.8-0.3-1.1-0.3l-3.5-0.9c-0.5-0.1-0.9-0.3-1.3-0.4c-0.4-0.2-0.8-0.4-1.1-0.7
				c-0.3-0.3-0.6-0.7-0.8-1.1c-0.2-0.4-0.3-0.9-0.3-1.6c0-0.4,0.1-0.8,0.2-1.3s0.4-1,0.8-1.5c0.4-0.5,1-0.8,1.7-1.2
				c0.7-0.3,1.6-0.5,2.7-0.5c0.8,0,1.5,0.1,2.2,0.3c0.7,0.2,1.3,0.5,1.8,0.9c0.5,0.4,0.9,0.9,1.3,1.5c0.3,0.6,0.5,1.3,0.5,2.1h-1.5
				c0-0.6-0.2-1.1-0.4-1.6s-0.6-0.8-0.9-1.1s-0.8-0.5-1.3-0.7c-0.5-0.2-1-0.2-1.6-0.2c-0.5,0-1,0.1-1.5,0.2
				c-0.5,0.1-0.9,0.3-1.3,0.5c-0.4,0.2-0.6,0.6-0.9,1c-0.2,0.4-0.3,0.9-0.3,1.5c0,0.4,0.1,0.7,0.2,1c0.1,0.3,0.3,0.5,0.5,0.7
				c0.2,0.2,0.5,0.3,0.8,0.5c0.3,0.1,0.6,0.2,0.9,0.3l3.8,0.9c0.6,0.1,1.1,0.3,1.6,0.5c0.5,0.2,0.9,0.5,1.3,0.8s0.7,0.7,0.9,1.2
				c0.2,0.5,0.3,1,0.3,1.6c0,0.2,0,0.4-0.1,0.7c0,0.3-0.1,0.6-0.3,0.9c-0.1,0.3-0.3,0.7-0.6,1c-0.3,0.3-0.6,0.6-1.1,0.9
				c-0.4,0.3-1,0.5-1.7,0.7c-0.7,0.2-1.5,0.3-2.4,0.3c-0.9,0-1.8-0.1-2.6-0.3c-0.8-0.2-1.5-0.5-2-1c-0.6-0.4-1-1-1.3-1.7
				s-0.4-1.5-0.4-2.5h1.5C253.1,326,253.3,326.6,253.5,327.2z"/>
		</g>
		<g>
			<line class="st1" x1="0" y1="323.9" x2="85" y2="323.9"/>
			<rect x="0" y="323.4" class="st1" width="85" height="1"/>
		</g>
		<g>
			<line class="st1" x1="290.2" y1="323.9" x2="375.2" y2="323.9"/>
			<rect x="290.2" y="323.4" class="st1" width="85" height="1"/>
		</g>
	</g>
	<g>
		<g>
			<polygon class="st1" points="187.5,32.3 192.8,48.7 210.1,48.7 196.1,58.8 201.5,75.2 187.5,65 173.6,75.2 179,58.8 164.9,48.7 
				182.2,48.7 			"/>
			<g>
				<polygon class="st1" points="225.5,48.5 228.8,58.8 239.5,58.7 230.8,65 234.1,75.2 225.5,68.9 216.8,75.2 220.1,65 211.4,58.7 
					222.2,58.8 				"/>
				<polygon class="st1" points="149.9,48.5 153.2,58.8 163.9,58.7 155.2,65 158.6,75.2 149.9,68.9 141.2,75.2 144.5,65 135.8,58.7 
					146.6,58.8 				"/>
			</g>
			<g>
				<polygon class="st1" points="254.1,57.8 256.3,64.5 263.3,64.5 257.6,68.6 259.8,75.2 254.1,71.1 248.5,75.2 250.6,68.6 
					245,64.5 252,64.5 				"/>
				<polygon class="st1" points="121,57.8 123.1,64.5 130.1,64.5 124.4,68.6 126.6,75.2 121,71.1 115.3,75.2 117.5,68.6 111.8,64.5 
					118.8,64.5 				"/>
			</g>
		</g>
		<g>
			<polygon class="st1" points="187.5,206.1 189.8,212.4 196,214.7 189.8,216.9 187.5,223.2 185.3,216.9 179,214.7 185.3,212.4 			
				"/>
			<g>
				<polygon class="st1" points="173.1,206.1 174.6,210.1 178.5,211.5 174.6,213 173.1,216.9 171.7,213 167.8,211.5 171.7,210.1 
									"/>
				<polygon class="st1" points="201.9,206.1 203.4,210.1 207.3,211.5 203.4,213 201.9,216.9 200.5,213 196.5,211.5 200.5,210.1 
									"/>
			</g>
		</g>
		<g>
			<path class="st1" d="M97.3,90.5c0-22.5,0-44.9,0.1-67.4c0-0.7,1.2-1.9,2-2.1c3.7-1.2,7.5-2.1,11.3-3.1c1.4-0.4,2.8-0.7,4.3-1
				c3.6-0.7,7.1-1.3,10.7-2.1c4.1-0.9,8.2-2.1,12.3-3.1c2.6-0.7,5.3-1.2,7.9-1.9c4.6-1.3,9.2-2.6,13.8-3.9c1.5-0.4,3.1-0.7,4.7-1
				c3.5-0.7,7-1.4,10.5-2.1c4.8-1,9.5-2.6,14.3-2.8c3.5-0.1,7,1.8,10.6,2.7c1.4,0.4,2.9,0.8,4.3,1c2.2,0.4,4.4,0.7,6.6,1.1
				c4.5,0.9,9,1.9,13.4,3c2.5,0.6,4.9,1.5,7.3,2.1c4.2,1,8.4,1.9,12.6,2.9c3.9,1,7.8,2.1,11.7,3.1c4.3,1.1,8.7,1.9,13,3
				c2.6,0.6,5.2,1.3,7.7,2.2c0.8,0.3,1.8,1.4,1.8,2.1c0.1,42.9,0.1,85.9,0,128.8c0,4.2-1.1,8.4-2.1,12.5c-0.9,3.7-2.2,7.3-3.9,10.7
				c-1.6,3.4-3.8,6.5-5.8,9.6c-2,3.2-3.9,6.6-6.2,9.6c-1.9,2.4-4.4,4.3-6.6,6.6c-1.9,2-3.5,4.2-5.4,6.1c-1.7,1.7-3.6,3-5.4,4.5
				c-2.2,1.9-4.3,3.8-6.5,5.6c-2,1.6-4.2,3-6.3,4.5c-1.6,1.1-3.1,2.4-4.8,3.4c-1.9,1.2-3.8,2.3-5.8,3.4c-2.3,1.3-4.6,2.5-6.9,3.6
				c-2.3,1.2-4.7,2.3-7,3.4c-2.8,1.3-5.7,2.5-8.5,3.8c-1.1,0.5-2.1,1-3.2,1.1c-2.9,0.4-5.8,1.4-8.6,0.9c-3.5-0.6-6.8-2.3-10.2-3.5
				c-2.7-1-5.5-2-8.1-3.3c-2.9-1.4-5.7-3.2-8.5-4.8c-1.8-1-3.7-2-5.5-3c-1.8-1.1-3.7-2.1-5.5-3.3c-1.8-1.2-3.7-2.4-5.4-3.7
				c-2.3-1.8-4.5-3.7-6.7-5.6c-2.6-2.1-5.2-4.2-7.7-6.4c-1.8-1.6-3.5-3.5-5.2-5.3c-2.2-2.3-4.5-4.5-6.6-6.8c-1.3-1.4-2.3-3-3.4-4.6
				c-1.3-1.8-2.7-3.5-3.8-5.4c-1.1-1.8-2.1-3.7-3.1-5.6c-1.3-2.5-2.7-4.9-3.9-7.4c-0.8-1.8-1.5-3.7-2-5.6c-0.5-1.9-1-3.9-1.1-5.8
				c-0.7-23.5-1.3-47.1-1.9-70.6C96.9,90.5,97.1,90.5,97.3,90.5z M109.3,129.8c-0.2,0-0.4,0-0.6,0c0.6,10,1.2,20.1,1.9,30.1
				c0.1,1.8,0.6,3.7,1,5.5c0.3,1.1,0.7,2.1,1.2,3.1c1.2,2.3,2.5,4.5,3.7,6.7c1.4,2.5,2.4,5.2,4.1,7.4c2.4,3.2,5.2,6.1,7.9,9.1
				c2.8,3,5.6,6.1,8.6,8.9c2.5,2.3,5.3,4.2,8,6.3c2.7,2,5.3,4,8.1,5.9c1.7,1.1,3.5,2,5.2,3.1c2.2,1.3,4.3,2.7,6.5,3.9
				c1.4,0.8,2.9,1.4,4.3,2.1c2.6,1.3,5.1,2.7,7.7,3.8c2.1,0.9,4.2,1.8,6.4,2.2c2.9,0.4,5.9,0.8,8.7,0.3c2.9-0.5,5.6-2.2,8.4-3.4
				c2-0.8,4-1.4,5.9-2.4c3.2-1.8,6.3-3.8,9.5-5.7c2.8-1.7,5.8-3.2,8.5-5.2c3.2-2.4,6.2-5.1,9.3-7.7c2.9-2.4,6.1-4.6,8.8-7.3
				c2.7-2.7,5-5.7,7.4-8.7c2.5-3.1,5.3-6,7.4-9.4c2.4-3.8,4.5-7.9,6-12.1c1.5-4.3,3-9,3.1-13.5c0.4-16.8,0.2-33.7,0.1-50.5
				c0-0.5-0.6-1.3-1.1-1.4c-2.8-0.7-5.6-1.4-8.4-1.9c-3.7-0.8-7.4-1.7-11.2-2.1c-4.4-0.5-8.9-0.9-13.4-1c-15-0.1-29.9-0.1-44.9,0.1
				c-0.7,0-1.4,1.6-1.9,2.6c-0.1,0.3,0.6,0.9,0.8,1.4c0.3,0.9,0.6,1.8,0.9,2.7c0.8-0.5,1.5-1.2,2.3-1.6c0.9-0.4,1.9-0.6,2.9-0.8
				c0.3,1.1,0.4,2.3,0.9,3.3c1,2.5,1.9,5,3.3,7.2c2.4,3.7,4.5,7.3,3.9,11.9c-0.3,2.4-1,4.3-4.1,4.1c-2.7-0.2-5.4,0-8.2-0.1
				c-0.3,0-0.8-0.2-1-0.5c-1-1.5-2.2-2.9-2.9-4.5c-1.5-3.1-3.2-6.3-3.8-9.6c-0.9-5.1,0-10.1,2.9-14.7c0.2-0.3-0.5-1.5-0.8-1.5
				c-15.7,0.2-31.4,0.3-47.1,0.8c-4.5,0.1-8.9,1.4-13.4,2.1c-2.7,0.4-5.5,0.5-8.1,1.1c-2.5,0.6-5.2,0.6-4.9,4.9
				C109.7,113.1,109.3,121.5,109.3,129.8z M109.3,60.9c0,9.1,0,18.1,0,27.2c0,0.5,0.7,1.6,0.9,1.5c1.9-0.5,3.8-1.2,5.7-1.6
				c3.7-0.8,7.4-1.5,11.2-2.2c4.3-0.7,8.6-1.4,13-1.9c5.7-0.7,11.4-1.4,17.1-1.9c4.4-0.4,8.9-0.9,13.3-0.9
				c11.8,0.1,23.7,0.3,35.5,0.8c8.1,0.3,16.2,1.2,24.3,1.9c2.2,0.2,4.4,0.6,6.6,0.9c4.8,0.7,9.6,1.5,14.5,2.2c2.5,0.4,5,0.7,7.5,1
				c1.8,0.3,3.5,0.6,5.3,1c0.6,0.1,1.2,0.4,1.9,0.6c0.1-0.6,0.4-1.2,0.4-1.8c0-16.7-0.2-33.3,0.2-50c0.1-4.7-1.8-6.1-5.6-7
				c-4-0.9-8-1.9-12-2.9c-4-1-7.9-2.1-11.9-3.1c-4.1-1-8.2-1.9-12.3-2.9c-2.7-0.7-5.3-1.4-7.9-2.1c-2.7-0.7-5.5-1.4-8.3-1.9
				c-3.6-0.7-7.2-1.3-10.8-2.1c-1.7-0.4-3.3-1.4-5-1.8c-2-0.5-4.2-1.1-6.2-1c-1.6,0.1-3.1,1.4-4.8,1.8c-2.1,0.6-4.4,0.7-6.5,1.1
				c-1.8,0.3-3.7,0.6-5.5,1.1c-4.4,1.2-8.7,2.7-13.1,3.8c-3.6,0.9-7.2,1.4-10.8,2.1c-1.4,0.3-2.8,0.6-4.1,1c-3.3,1-6.6,2-9.9,2.9
				c-2.2,0.6-4.5,1.3-6.7,1.8c-4.6,1-9.1,1.9-13.7,3.1c-0.8,0.2-2.1,1.4-2.1,2.1C109.2,42.9,109.3,51.9,109.3,60.9z"/>
			<path class="st1" d="M224.4,151.4c0,8.4-0.2,16.9,0.1,25.3c0.1,3-1.5,4-3.6,4.8c-3,1.3-6.4,1.8-9.2,3.4c-4,2.2-7.7,4.8-11.4,7.5
				c-3,2.2-5.9,4.7-8.7,7.3c-0.9,0.9-1.5,2.2-2.2,3.2c-0.2,0.2-0.4,0.4-0.6,0.6c-0.1-0.3-0.3-0.6-0.3-0.8c0-17.9-0.2-35.9,0.2-53.8
				c0-2.1,2.5-4.3,4.1-6.1c2-2.3,4.2-4.5,6.5-6.5c2-1.7,4.3-3.1,6.5-4.7c1.6-1.1,3-2.4,4.6-3.5c1.4-0.9,3-1.6,4.5-2.4
				c2.5-1.3,5-2.7,7.5-4c0.2-0.1,0.5-0.1,0.6-0.1c0.5,0.7,1.3,1.4,1.3,2.2C224.5,133.1,224.4,142.2,224.4,151.4z"/>
			<path class="st1" d="M151.3,151.1c0-8.8,0-17.7,0-26.5c0-1,0.2-2,0.4-2.9c1,0.5,1.9,0.9,2.9,1.4c1.7,0.9,3.3,1.7,5,2.6
				c2,1.1,4.1,2.2,6.1,3.5c2.5,1.5,5,2.9,7.2,4.6c2.4,1.8,4.5,4,6.6,6.1c1.9,1.9,3.6,3.9,5.3,5.9c0.7,0.9,1.5,2.2,1.5,3.3
				c0.1,17.7,0.1,35.3,0,53c0,0.4-0.5,0.9-0.8,1.3c-0.4-0.6-0.6-1.3-1.1-1.8c-2.2-2.3-4.3-4.7-6.6-6.8c-2.8-2.5-5.6-4.9-8.7-6.9
				c-2.1-1.4-4.6-2.1-6.9-3.1c-2.9-1.3-5.8-3.1-8.8-3.7c-3.7-0.7-1.9-3.2-2-4.8C151.2,167.8,151.3,159.5,151.3,151.1z"/>
			<path class="st1" d="M247.3,152.7c0-8.8-0.1-17.7,0.1-26.5c0-1.1,1.3-2.4,2.3-3.3c2.2-2,4.6-3.8,6.9-5.6c2.3-1.8,4.7-3.6,7-5.4
				c0.1-0.1,0.6,0,0.6,0c0.1,1.1,0.3,2.3,0.1,3.4c-0.4,1.7-1,3.5-1.9,5c-0.9,1.6-2.3,2.9-3.4,4.4c-0.2,0.3-0.4,0.5-0.6,0.8
				c0.3,0.1,0.6,0.3,0.9,0.3c0.7,0.2,1.5,0.4,2.2,0.6c-0.6,1.2-1.1,2.4-1.8,3.5c-1,1.5-2.1,2.9-3.2,4.4c0.3,0.2,0.5,0.4,0.9,0.6
				c0.6,0.2,1.3,0.3,1.9,0.5c-0.5,1.1-0.8,2.3-1.4,3.3c-0.6,1-1.5,1.7-2.3,2.5c-0.1,0.1,0.1,0.5,0.2,0.6c4.1,1.3,0.5,3.4,0.5,5.1
				c0,1.1-0.5,2.2-0.8,3.3c-0.6,2.6-1.3,5.2-1.9,7.7c-0.4,1.5-0.9,3.1-1.2,4.6c-0.4,2.4-0.6,4.9-1.2,7.3c-0.9,3.9-1.9,7.7-2.9,11.5
				c0,0.1-0.4,0.2-0.7,0.3c-0.1-0.4-0.4-0.7-0.4-1.1C247.3,171.2,247.3,161.9,247.3,152.7z"/>
			<path class="st1" d="M127.3,152.7c0,9.2,0,18.5,0,27.7c0,0.4-0.3,0.8-0.4,1.2c-0.2-0.4-0.4-0.8-0.5-1.2c-1-5-2-10-3.1-14.9
				c-0.6-2.7-1.3-5.4-2.1-8.1c-0.5-1.7-1.4-3.2-1.6-4.9c-0.1-0.9,0.7-1.9,1.1-2.8c0.1-0.1,0.3-0.2,0.4-0.3c-0.7-0.8-1.7-1.5-2.2-2.4
				c-0.7-1.4-1-2.9-1.4-4.4c0-0.1,1.4-0.4,1.4-0.7c0-0.7-0.2-1.4-0.6-2c-0.9-1.4-2-2.8-2.9-4.2c-0.1-0.1,0-0.5,0-0.6
				c0.6-0.1,1.2-0.2,1.7-0.2c0.4-0.1,0.8-0.2,1.2-0.3c-0.2-0.3-0.5-0.6-0.7-0.9c-1.4-2.2-2.9-4.3-4.2-6.6c-0.1-0.2,0.4-1.1,0.8-1.2
				c0.9-0.3,1.9-0.4,2.9-0.5c-0.8-0.8-1.7-1.5-2.4-2.4c-1.2-1.8-2.3-3.7-3.4-5.6c-0.5-0.8-0.7-1.8-0.9-2.8c-0.1-0.9,0-1.8,0.1-2.7
				c0.8,0.4,1.8,0.7,2.5,1.3c3,2.2,6.2,4.2,8.8,6.8c2.4,2.3,5.8,3.6,5.4,8.4C126.9,136.3,127.4,144.5,127.3,152.7
				C127.4,152.7,127.3,152.7,127.3,152.7z"/>
			<path class="st1" d="M178.3,200.9c-3.4-1.4-6.8-2.7-10.2-4.1c-1.1-0.4-2.3-0.8-3.5-1c-2.2-0.4-4.4-0.8-6.6-1.1
				c-4.4-0.7-8.8-1.4-13.1-2.2c-0.5-0.1-1.1-0.8-1.5-0.7c-5.3,1-6.1-1.4-6.1-6.3c0.3-17.7,0.1-35.3,0.2-53c0-0.6,1-1.8,1.2-1.7
				c1.3,0.5,3.7,1.2,3.7,1.8c0.2,17.3,0.1,34.6,0.2,51.9c0,0.7,1.2,1.9,2,2c2.7,0.6,5.6,0.5,8.2,1.2c4.2,1.1,8.3,2.3,12.3,4
				c3.6,1.6,6.9,3.7,10.2,5.9C176.5,198.4,177.3,199.8,178.3,200.9L178.3,200.9z"/>
			<path class="st1" d="M196.4,200.7c0.9-1,1.6-2.2,2.7-2.9c2-1.5,4.1-2.8,6.3-4c1.5-0.8,3.1-1.6,4.8-2.1c3.8-1.1,7.7-2.1,11.6-3.1
				c3.2-0.8,6.5-1.3,9.7-2.1c0.4-0.1,1-1,1-1.6c0.1-17.5,0-35.1,0.2-52.6c0-0.6,2.6-1.2,4-1.6c0.1,0,0.9,1,0.9,1.6
				c0,19.3,0,38.7,0,58c0,0.4-0.8,1.2-1.3,1.3c-4,0.4-8.1,0.5-12.1,1.1c-4.5,0.7-8.9,1.8-13.3,3.1c-3.9,1.1-7.8,2.6-11.6,3.9
				C198.1,200,197.2,200.3,196.4,200.7L196.4,200.7z"/>
			<path class="st1" d="M206.5,190.7c0.7-0.6,1.3-1.4,2.1-1.8c2.4-1.2,4.9-2.2,7.4-3.2c3.3-1.4,6.7-2.7,10.1-4.1
				c0.2-0.1,0.4-0.8,0.4-1.2c0-17.5,0-35.1,0.1-52.6c0-0.7,1.5-1.4,2.3-2.1c0.5,0.7,1.5,1.5,1.5,2.2c0.1,18.2,0.1,36.4,0,54.5
				c0,0.8-1.3,2-2.2,2.3c-4.4,1.2-8.9,1.9-13.3,3.1C211.9,188.5,209.2,189.7,206.5,190.7L206.5,190.7z"/>
			<path class="st1" d="M166.4,189.8c-3-1-6-2-9.1-2.9c-1.2-0.4-2.3-0.8-3.5-1c-1.8-0.4-3.7-1.1-5.5-1c-2.6,0.2-3.1-0.8-3.1-3.2
				c0.1-18.1,0.1-36.1,0.1-54.2c0-0.6,0.5-1.2,0.8-1.8c0.8,0.6,2.3,1.3,2.3,1.9c0.1,17.4,0.1,34.9,0.2,52.3c0,1,1.2,2.4,2.3,2.9
				c3.9,1.7,8,3.1,11.9,4.7C164.1,188,165.3,188.9,166.4,189.8C166.5,189.7,166.4,189.8,166.4,189.8z"/>
			<path class="st1" d="M187.4,127.7c3.6,0,7.3-0.1,10.9,0.1c0.8,0,2.2,1.1,2.1,1.3c-0.4,1.2-1.2,3.4-1.9,3.4
				c-7.5,0.2-15,0.2-22.5,0c-0.6,0-1.2-2.3-1.6-3.5c-0.1-0.2,1.1-1.1,1.7-1.2C179.9,127.7,183.7,127.7,187.4,127.7z"/>
			<path class="st1" d="M178.8,110.8c0.8,3.2,1.4,6.6,2.6,9.6c0.8,1.9,2.5,3.5,3.7,5.2c0.1,0.2,0.3,0.5,0.2,0.7
				c-0.1,0.2-0.4,0.2-0.7,0.2c-2.1,0-4.2,0.1-6.3-0.1c-0.6,0-1.5-0.7-1.6-1.2c-0.8-3.9-2.2-7.9-2-11.8c0.1-2.6,2.5-5.1,3.9-7.7
				c0.1-0.1,0.4-0.1,0.5-0.1c0.1,0.1,0.2,0.4,0.2,0.6c0,1.4,0,2.8,0,4.2C179.2,110.7,179,110.8,178.8,110.8z"/>
			<path class="st1" d="M187.5,134.8c1.4,0,2.7-0.1,4.1,0c1,0,1.9,0.2,2.9,0.4c-0.5,1.5-0.5,3.7-1.5,4.2c-2.2,1.2-4.8,1.8-7.4,2.2
				c-2.4,0.3-5.7-3.7-5.2-6.2c0-0.2,0.6-0.6,0.9-0.6C183.4,134.8,185.5,134.8,187.5,134.8z"/>
		</g>
	</g>
	<g>
		<g>
			<path class="st1" d="M82.9,216.6c3.7,0.9,7.5,1.4,10.9,3c2.7,1.3,4.8,3.9,7.2,6c-0.9,0.9-1.9,2.6-2.6,2.4
				c-4.4-0.7-9.1-1.2-13.1-2.9c-3.1-1.4-5.4-4.5-8.1-6.9c-0.1-0.1-0.2-0.5-0.1-0.7c0.1-0.2,0.4-0.3,0.7-0.3c1.6,0,3.2,0,4.8,0
				C82.8,217,82.9,216.8,82.9,216.6z"/>
			<path class="st1" d="M123.7,248.8c-4.9-1.1-8.5-1.9-12.1-2.7c0.2-0.6,0.3-1.5,0.7-1.7c5.4-3,10.9-5.8,17.3-5
				c2.4,0.3,4.7,1.2,7.1,1.9c-0.5,1-0.8,2.4-1.6,2.8C131.1,245.9,127,247.5,123.7,248.8z"/>
			<path class="st1" d="M106.2,230.8c2.6,0.7,6.1,1.5,9.4,2.6c1,0.3,1.8,1.6,2.7,2.4c-1.2,0.8-2.3,2.1-3.6,2.3
				c-3.3,0.6-6.8,1.4-10,0.9c-3.4-0.5-6.6-2.3-9.8-3.7c-0.6-0.3-1.1-1.1-1.6-1.6c0.9-0.5,1.8-1.2,2.8-1.4
				C99,231.8,102.1,231.4,106.2,230.8z"/>
			<path class="st1" d="M151.5,243.3c1.2,0,2.3-0.1,3.5,0c0.7,0,1.3,0.3,2,0.5c-0.4,0.8-0.6,1.8-1.2,2.3c-2.5,2.1-5,4.4-7.9,5.9
				c-2.1,1.1-4.8,1-7.3,1.2c-1.9,0.2-3.8,0.1-5.7,0c-0.6,0-1.3-0.2-1.9-0.3c0.3-0.5,0.6-1.2,1.1-1.6c3-2.3,5.9-5,9.2-6.8
				c2.3-1.2,5.3-1.1,8-1.6C151.4,243,151.5,243.2,151.5,243.3z"/>
			<path class="st1" d="M86.1,214.5c-4-2-7.3-3.1-10-5.1c-3.2-2.4-6-5.4-8.8-8.3c-0.6-0.6-0.6-1.8-0.9-2.7c1,0.2,2.1,0.3,3.1,0.6
				c1.4,0.4,3,0.7,4.3,1.4c3.3,1.8,6.5,3.6,9.5,5.9c1.6,1.2,2.8,3.1,3.9,4.8C87.4,211.6,86.6,212.7,86.1,214.5z"/>
			<path class="st1" d="M74.3,195.8c-2.1-1.5-5.1-2.9-7-5.3c-2.5-3.1-4.1-6.9-6-10.5c-0.2-0.4-0.1-1,0-1.5c0-0.1,0.8-0.3,1-0.2
				c3,1.8,6.2,3.5,8.9,5.6c1.9,1.5,3.4,3.5,4.6,5.6c0.9,1.6,1,3.7,1.4,5.5C76.5,195.3,75.8,195.4,74.3,195.8z"/>
			<path class="st1" d="M71.2,173.6c0,0.6,0.1,1.2,0,1.8c-0.1,1-0.3,1.9-0.5,2.9c-1.2-0.8-2.6-1.3-3.6-2.3c-1.7-1.7-3.2-3.7-4.7-5.6
				c-0.6-0.7-1.1-1.7-1.2-2.6c-0.5-3.3-0.8-6.6-1-9.9c0-0.1,1-0.4,1.5-0.3c0.5,0.1,0.9,0.6,1.4,1c1.6,1.6,3.6,3,4.7,4.9
				c1.8,3.1,2.9,6.5,4.3,9.8C71.8,173.3,71.5,173.5,71.2,173.6z"/>
			<path class="st1" d="M62.8,144.2c0.5-2.5,0.9-4.9,1.4-7.4c0.6,0.2,1.4,0.2,1.6,0.6c1.6,2.6,3.1,5.3,4.4,8.1
				c0.8,1.6,1.7,3.5,1.6,5.2c-0.2,2.9-1.2,5.7-1.8,8.5c-1-0.8-2.4-1.3-2.9-2.3c-1.9-4-3.5-8.1-5.2-12.1
				C62.3,144.6,62.6,144.4,62.8,144.2z"/>
			<path class="st1" d="M97.1,208.5c0-1.4-0.1-2.8,0-4.2c0-0.7,0.3-1.4,0.5-2c0.8,0.5,1.9,0.8,2.5,1.5c1.8,2.4,3.9,4.8,4.9,7.5
				c0.9,2.5,0.6,5.6,0.4,8.3c-0.1,1.2-1.2,2.3-1.9,3.4c-1.4-1.4-3.3-2.5-4-4.2c-1.4-3.2-2.2-6.7-3.3-10.1
				C96.5,208.7,96.8,208.6,97.1,208.5z"/>
			<path class="st1" d="M124.2,221.1c1.9,1.1,4,2.2,6,3.6c1.5,1,2.9,2.2,4,3.6c1.2,1.5,2.1,3.3,2.9,5.1c0.5,1.2,0.5,2.6,0.8,3.9
				c-1.6-0.1-3.4,0.4-4.6-0.3c-2-1.2-3.8-2.9-5.4-4.6c-1.4-1.6-2.5-3.6-3.6-5.6c-0.8-1.5-1.3-3.2-1.9-4.8c0-0.1,0-0.4,0-0.4
				C122.8,221.4,123.3,221.3,124.2,221.1z"/>
			<path class="st1" d="M94.7,202c-1,2.3-2.3,5.2-3.7,8.1c-0.9-0.7-2.4-1.1-2.7-2c-1-2.9-2.3-6-2.1-9c0.2-3.5,1.9-6.9,3-10.4
				c0.5,0.3,1.3,0.5,1.6,0.9c0.9,1.9,1.8,3.8,2.4,5.8C93.8,197.1,94.1,199,94.7,202z"/>
			<path class="st1" d="M155,240.3c-5.8-0.8-10-3.3-12.9-7.7c-1.2-1.9-2.6-3.7-3.9-5.5c-0.1-0.2,0-0.5,0-0.7c1,0,2-0.2,2.9,0.1
				c1.6,0.4,3.1,1,4.5,1.7c2.2,1.2,4.6,2.2,6.3,3.9c2,2.1,3.3,4.8,4.9,7.3C156.1,239.8,155.4,240.1,155,240.3z"/>
			<path class="st1" d="M84.8,162.7c-1.2,3.5-2.1,7.1-3.8,10.3c-1,1.8-3.3,3-5.1,4.3c-0.1,0.1-1.6-1-1.7-1.6
				c-0.9-4.8,0.5-9.1,3.7-12.7c1.3-1.6,2.9-3,4.4-4.4c0.3-0.2,0.9-0.2,1.4-0.1c0.2,0.1,0.4,0.6,0.4,0.9c0.1,1,0,2.1,0,3.1
				C84.3,162.5,84.5,162.6,84.8,162.7z"/>
			<path class="st1" d="M77.8,185.6c1.1-2.2,2.6-5.3,4.2-8.4c0.6-1.2,1.5-2.3,2.2-3.4c0.1-0.1,0.7,0,0.7,0.1c0.4,1.7,0.7,3.4,1.1,5
				c0.3,1,1.3,2.2,1,2.9c-1.4,3.8-2.7,7.8-4.8,11.3c-1.3,2-2,1.7-3.1-1.2C78.6,190.3,78.4,188.6,77.8,185.6z"/>
			<path class="st1" d="M121,228.7c-0.9,1.2-1.7,2.4-2.5,3.5c-1.8-1.4-4.3-2.5-5.2-4.3c-1.9-3.9-3-8.2-4.2-12.4
				c-0.2-0.7,0.2-1.5,0.3-2.3c0.9,0.4,2,0.6,2.7,1.3c2,1.8,4.3,3.6,5.7,5.8C119.3,222.7,119.8,225.5,121,228.7z"/>
			<path class="st1" d="M72,156.5c2.5-3.4,4.9-6.9,7.7-10.1c1.4-1.6,3.5-2.7,5.4-3.9c0.5-0.3,1.3,0,1.9,0c-0.2,0.3-0.5,0.6-0.6,0.9
				c-0.2,0.8-0.2,1.6-0.4,2.4c-1.2,4.6-2.4,9.3-7.6,11.4c-0.9,0.4-1.5,1.4-2.4,1.8c-0.8,0.3-1.8,0.4-2.6,0.2
				c-0.3-0.1-0.3-1.2-0.5-1.9C72.7,157.1,72.4,156.8,72,156.5z"/>
			<path class="st1" d="M73.1,139.5c-0.8-4.9,1.8-8.1,4.9-11.1c0.6-0.6,1.1-1.4,1.6-2.1c0.8,1,2.3,2.1,2.3,3.1
				c0.1,2.7,0.2,5.8-1,8.1c-1.4,2.8-4.1,5.1-6.2,7.6c-0.6-0.5-1.5-1-1.6-1.6C73,142.2,73.1,140.7,73.1,139.5z"/>
		</g>
		<g>
			<path class="st1" d="M292.2,216.6c-3.7,0.9-7.5,1.4-10.9,3c-2.7,1.3-4.8,3.9-7.2,6c0.9,0.9,1.9,2.6,2.6,2.4
				c4.4-0.7,9.1-1.2,13.1-2.9c3.1-1.4,5.4-4.5,8.1-6.9c0.1-0.1,0.2-0.5,0.1-0.7c-0.1-0.2-0.4-0.3-0.7-0.3c-1.6,0-3.2,0-4.8,0
				C292.3,217,292.2,216.8,292.2,216.6z"/>
			<path class="st1" d="M251.4,248.8c4.9-1.1,8.5-1.9,12.1-2.7c-0.2-0.6-0.3-1.5-0.7-1.7c-5.4-3-10.9-5.8-17.3-5
				c-2.4,0.3-4.7,1.2-7.1,1.9c0.5,1,0.8,2.4,1.6,2.8C243.9,245.9,248.1,247.5,251.4,248.8z"/>
			<path class="st1" d="M268.9,230.8c-2.6,0.7-6.1,1.5-9.4,2.6c-1,0.3-1.8,1.6-2.7,2.4c1.2,0.8,2.3,2.1,3.6,2.3
				c3.3,0.6,6.8,1.4,10,0.9c3.4-0.5,6.6-2.3,9.8-3.7c0.6-0.3,1.1-1.1,1.6-1.6c-0.9-0.5-1.8-1.2-2.8-1.4
				C276.1,231.8,273,231.4,268.9,230.8z"/>
			<path class="st1" d="M223.6,243.3c-1.2,0-2.3-0.1-3.5,0c-0.7,0-1.3,0.3-2,0.5c0.4,0.8,0.6,1.8,1.2,2.3c2.5,2.1,5,4.4,7.9,5.9
				c2.1,1.1,4.8,1,7.3,1.2c1.9,0.2,3.8,0.1,5.7,0c0.6,0,1.3-0.2,1.9-0.3c-0.3-0.5-0.6-1.2-1.1-1.6c-3-2.3-5.9-5-9.2-6.8
				c-2.3-1.2-5.3-1.1-8-1.6C223.6,243,223.6,243.2,223.6,243.3z"/>
			<path class="st1" d="M289,214.5c4-2,7.3-3.1,10-5.1c3.2-2.4,6-5.4,8.8-8.3c0.6-0.6,0.6-1.8,0.9-2.7c-1,0.2-2.1,0.3-3.1,0.6
				c-1.4,0.4-3,0.7-4.3,1.4c-3.3,1.8-6.5,3.6-9.5,5.9c-1.6,1.2-2.8,3.1-3.9,4.8C287.7,211.6,288.4,212.7,289,214.5z"/>
			<path class="st1" d="M300.8,195.8c2.1-1.5,5.1-2.9,7-5.3c2.5-3.1,4.1-6.9,6-10.5c0.2-0.4,0.1-1,0-1.5c0-0.1-0.8-0.3-1-0.2
				c-3,1.8-6.2,3.5-8.9,5.6c-1.9,1.5-3.4,3.5-4.6,5.6c-0.9,1.6-1,3.7-1.4,5.5C298.6,195.3,299.3,195.4,300.8,195.8z"/>
			<path class="st1" d="M303.8,173.6c0,0.6-0.1,1.2,0,1.8c0.1,1,0.3,1.9,0.5,2.9c1.2-0.8,2.6-1.3,3.6-2.3c1.7-1.7,3.2-3.7,4.7-5.6
				c0.6-0.7,1.1-1.7,1.2-2.6c0.5-3.3,0.8-6.6,1-9.9c0-0.1-1-0.4-1.5-0.3c-0.5,0.1-0.9,0.6-1.4,1c-1.6,1.6-3.6,3-4.7,4.9
				c-1.8,3.1-2.9,6.5-4.3,9.8C303.3,173.3,303.6,173.5,303.8,173.6z"/>
			<path class="st1" d="M312.2,144.2c-0.5-2.5-0.9-4.9-1.4-7.4c-0.6,0.2-1.4,0.2-1.6,0.6c-1.6,2.6-3.1,5.3-4.4,8.1
				c-0.8,1.6-1.7,3.5-1.6,5.2c0.2,2.9,1.2,5.7,1.8,8.5c1-0.8,2.4-1.3,2.9-2.3c1.9-4,3.5-8.1,5.2-12.1
				C312.8,144.6,312.5,144.4,312.2,144.2z"/>
			<path class="st1" d="M278,208.5c0-1.4,0.1-2.8,0-4.2c0-0.7-0.3-1.4-0.5-2c-0.8,0.5-1.9,0.8-2.5,1.5c-1.8,2.4-3.9,4.8-4.9,7.5
				c-0.9,2.5-0.6,5.6-0.4,8.3c0.1,1.2,1.2,2.3,1.9,3.4c1.4-1.4,3.3-2.5,4-4.2c1.4-3.2,2.2-6.7,3.3-10.1
				C278.6,208.7,278.3,208.6,278,208.5z"/>
			<path class="st1" d="M250.9,221.1c-1.9,1.1-4,2.2-6,3.6c-1.5,1-2.9,2.2-4,3.6c-1.2,1.5-2.1,3.3-2.9,5.1c-0.5,1.2-0.5,2.6-0.8,3.9
				c1.6-0.1,3.4,0.4,4.6-0.3c2-1.2,3.8-2.9,5.4-4.6c1.4-1.6,2.5-3.6,3.6-5.6c0.8-1.5,1.3-3.2,1.9-4.8c0-0.1,0-0.4,0-0.4
				C252.3,221.4,251.8,221.3,250.9,221.1z"/>
			<path class="st1" d="M280.3,202c1,2.3,2.3,5.2,3.7,8.1c0.9-0.7,2.4-1.1,2.7-2c1-2.9,2.3-6,2.1-9c-0.2-3.5-1.9-6.9-3-10.4
				c-0.5,0.3-1.3,0.5-1.6,0.9c-0.9,1.9-1.8,3.8-2.4,5.8C281.3,197.1,281,199,280.3,202z"/>
			<path class="st1" d="M220,240.3c5.8-0.8,10-3.3,12.9-7.7c1.2-1.9,2.6-3.7,3.9-5.5c0.1-0.2,0-0.5,0-0.7c-1,0-2-0.2-2.9,0.1
				c-1.6,0.4-3.1,1-4.5,1.7c-2.2,1.2-4.6,2.2-6.3,3.9c-2,2.1-3.3,4.8-4.9,7.3C219,239.8,219.7,240.1,220,240.3z"/>
			<path class="st1" d="M290.3,162.7c1.2,3.5,2.1,7.1,3.8,10.3c1,1.8,3.3,3,5.1,4.3c0.1,0.1,1.6-1,1.7-1.6c0.9-4.8-0.5-9.1-3.7-12.7
				c-1.3-1.6-2.9-3-4.4-4.4c-0.3-0.2-0.9-0.2-1.4-0.1c-0.2,0.1-0.4,0.6-0.4,0.9c-0.1,1,0,2.1,0,3.1
				C290.8,162.5,290.6,162.6,290.3,162.7z"/>
			<path class="st1" d="M297.3,185.6c-1.1-2.2-2.6-5.3-4.2-8.4c-0.6-1.2-1.5-2.3-2.2-3.4c-0.1-0.1-0.7,0-0.7,0.1
				c-0.4,1.7-0.7,3.4-1.1,5c-0.3,1-1.3,2.2-1,2.9c1.4,3.8,2.7,7.8,4.8,11.3c1.3,2,2,1.7,3.1-1.2
				C296.5,190.3,296.6,188.6,297.3,185.6z"/>
			<path class="st1" d="M254.1,228.7c0.9,1.2,1.7,2.4,2.5,3.5c1.8-1.4,4.3-2.5,5.2-4.3c1.9-3.9,3-8.2,4.2-12.4
				c0.2-0.7-0.2-1.5-0.3-2.3c-0.9,0.4-2,0.6-2.7,1.3c-2,1.8-4.3,3.6-5.7,5.8C255.8,222.7,255.3,225.5,254.1,228.7z"/>
			<path class="st1" d="M303,156.5c-2.5-3.4-4.9-6.9-7.7-10.1c-1.4-1.6-3.5-2.7-5.4-3.9c-0.5-0.3-1.3,0-1.9,0
				c0.2,0.3,0.5,0.6,0.6,0.9c0.2,0.8,0.2,1.6,0.4,2.4c1.2,4.6,2.4,9.3,7.6,11.4c0.9,0.4,1.5,1.4,2.4,1.8c0.8,0.3,1.8,0.4,2.6,0.2
				c0.3-0.1,0.3-1.2,0.5-1.9C302.4,157.1,302.7,156.8,303,156.5z"/>
			<path class="st1" d="M302,139.5c0.8-4.9-1.8-8.1-4.9-11.1c-0.6-0.6-1.1-1.4-1.6-2.1c-0.8,1-2.3,2.1-2.3,3.1
				c-0.1,2.7-0.2,5.8,1,8.1c1.4,2.8,4.1,5.1,6.2,7.6c0.6-0.5,1.5-1,1.6-1.6C302.1,142.2,302,140.7,302,139.5z"/>
		</g>
	</g>
</g>
</svg>
