<?xml version="1.0" encoding="utf-8"?>
<!-- Generator: Adobe Illustrator 26.0.0, SVG Export Plug-In . SVG Version: 6.00 Build 0)  -->
<svg version="1.1"
	 id="svg165" inkscape:version="0.92.4 5da689c313, 2019-01-14" sodipodi:docname="new-logo-cpe-bleu-crop.svg" xmlns:cc="http://creativecommons.org/ns#" xmlns:dc="http://purl.org/dc/elements/1.1/" xmlns:inkscape="http://www.inkscape.org/namespaces/inkscape" xmlns:rdf="http://www.w3.org/1999/02/22-rdf-syntax-ns#" xmlns:sodipodi="http://sodipodi.sourceforge.net/DTD/sodipodi-0.dtd" xmlns:svg="http://www.w3.org/2000/svg"
	 xmlns="http://www.w3.org/2000/svg" xmlns:xlink="http://www.w3.org/1999/xlink" x="0px" y="0px" width="284.8px" height="121.5px"
	 viewBox="0 0 284.8 121.5" style="enable-background:new 0 0 284.8 121.5;" xml:space="preserve">
<style type="text/css">
	.st0{opacity:0.8;fill:#FFFFFF;}
</style>
<sodipodi:namedview  bordercolor="#666666" borderopacity="1" fit-margin-bottom="0" fit-margin-left="0" fit-margin-right="0" fit-margin-top="0" gridtolerance="10" guidetolerance="10" id="namedview167" inkscape:current-layer="svg165" inkscape:cx="235.52694" inkscape:cy="60.765001" inkscape:pageopacity="0" inkscape:pageshadow="2" inkscape:window-height="1003" inkscape:window-maximized="1" inkscape:window-width="924" inkscape:window-x="979" inkscape:window-y="60" inkscape:zoom="0.94681314" objecttolerance="10" pagecolor="#ffffff" showgrid="false">
	</sodipodi:namedview>
<path id="path114" inkscape:connector-curvature="0" class="st0" d="M42.8,13.9h35.9c3.8,0,7-3.1,7-7c0-3.8-3.1-7-7-7H42.8
	C19.2,0,0,19.2,0,42.8s19.2,42.8,42.8,42.8h35.9c3.8,0,7-3.1,7-7s-3.1-7-7-7H42.8c-15.9,0-28.9-13-28.9-28.9S26.9,13.9,42.8,13.9z"
	/>
<path id="path121" inkscape:connector-curvature="0" class="st0" d="M142.4,0h-35.9c-3.8,0-7,3.1-7,7s3.1,7,7,7h35.9
	c15.9,0,28.9,13,28.9,28.9s-13,28.9-28.9,28.9h-17.9c-13.7,0-24.9,11.2-24.9,24.9v17.9c0,3.8,3.1,7,7,7s7-3.1,7-7V96.6
	c0-6.1,4.9-11,11-11h17.9c23.6,0,42.8-19.2,42.8-42.8S166,0,142.4,0z"/>
<path id="path128" inkscape:connector-curvature="0" class="st0" d="M277.9,71.7H242c-15.9,0-28.9-13-28.9-28.9s13-28.9,28.9-28.9
	h35.9c3.8,0,7-3.1,7-7c0-3.8-3.1-7-7-7H242c-23.6,0-42.8,19.2-42.8,42.8s19.2,42.8,42.8,42.8h35.9c3.8,0,7-3.1,7-7
	S281.7,71.7,277.9,71.7z"/>
<path id="path135" inkscape:connector-curvature="0" class="st0" d="M242,35.9c-3.8,0-7,3.1-7,7s3.1,7,7,7h17.9c3.8,0,7-3.1,7-7
	s-3.1-7-7-7H242z"/>
<path id="path142" inkscape:connector-curvature="0" class="st0" d="M169.3,116.9l-9.2,0l0-16.8c0-0.6-0.2-1.1-0.6-1.6
	c-0.4-0.4-0.9-0.6-1.6-0.6c-0.6,0-1.1,0.2-1.5,0.6c-0.4,0.4-0.6,0.9-0.6,1.5l0,18.9c0,0.6,0.2,1.1,0.6,1.5s0.9,0.6,1.5,0.6l11.4,0
	c0,0,0,0,0,0c0.6,0,1.1-0.2,1.5-0.6c0.4-0.4,0.6-0.9,0.6-1.5c0-0.6-0.2-1.1-0.6-1.5C170.4,117.1,169.9,116.9,169.3,116.9
	L169.3,116.9z"/>
<path id="path149" inkscape:connector-curvature="0" class="st0" d="M205.4,98.8c-0.2-0.5-0.8-1.1-1.9-1.1c0,0,0,0,0,0
	c-0.9,0-1.6,0.5-2.3,1.6l-5.5,9.3l-5.6-9.5c-0.6-0.9-1.3-1.4-2.1-1.4h0c-1.1,0-1.6,0.6-1.9,1.1c-0.2,0.5-0.4,1.3,0.2,2.3l7.2,12.1
	l0,5.8c0,0.6,0.2,1.1,0.6,1.5c0.4,0.4,0.9,0.6,1.5,0.6c0,0,0,0,0,0c0.6,0,1.1-0.2,1.5-0.6c0.4-0.4,0.6-0.9,0.6-1.5l0-5.8l7.4-12.2
	C205.7,100,205.6,99.3,205.4,98.8L205.4,98.8z"/>
<path id="path156" inkscape:connector-curvature="0" class="st0" d="M233.5,97.5C233.5,97.5,233.5,97.5,233.5,97.5
	c-3.3,0-6.1,1.2-8.4,3.5c-2.3,2.3-3.5,5.2-3.5,8.5c0,3.3,1.1,6.1,3.4,8.5c2.3,2.3,5.1,3.5,8.4,3.6c0,0,0,0,0,0
	c3.2,0,6.1-1.2,8.4-3.5c2.3-2.3,3.5-5.2,3.5-8.4c0-3.3-1.1-6.2-3.4-8.5C239.6,98.7,236.8,97.5,233.5,97.5z M233.5,117.3
	C233.5,117.3,233.5,117.3,233.5,117.3c-2.1,0-3.8-0.8-5.2-2.3c-1.5-1.5-2.2-3.3-2.2-5.5c0-2.2,0.7-4,2.2-5.5
	c1.4-1.5,3.1-2.3,5.2-2.3c0,0,0,0,0,0c2.1,0,3.8,0.8,5.2,2.3c1.5,1.6,2.2,3.4,2.2,5.5c0,2.2-0.7,3.9-2.2,5.5
	C237.2,116.5,235.5,117.3,233.5,117.3L233.5,117.3z"/>
<path id="path163" inkscape:connector-curvature="0" class="st0" d="M282.8,98.5c-0.4-0.4-0.9-0.6-1.5-0.6c0,0,0,0,0,0
	c-0.6,0-1.1,0.2-1.5,0.6s-0.6,0.9-0.6,1.5l0,13.6l-10.3-13.9c-0.8-1.2-1.8-1.9-2.8-1.9h0c-0.7,0-1.3,0.2-1.8,0.7
	c-0.4,0.5-0.6,1.1-0.6,1.8l0,18.7c0,0.6,0.2,1.1,0.6,1.5c0.4,0.4,0.9,0.6,1.5,0.6c0,0,0,0,0,0c0.6,0,1.1-0.2,1.5-0.6
	c0.4-0.4,0.6-0.9,0.6-1.5l0-13.4l10.2,13.7c0.5,0.7,0.9,1.1,1.3,1.4c0.5,0.3,1,0.5,1.7,0.5c0,0,0,0,0,0c0.7,0,1.2-0.3,1.6-0.7
	c0.4-0.5,0.6-1.1,0.6-1.8l0-18.7C283.4,99.5,283.2,98.9,282.8,98.5z"/>
</svg>
