<svg xmlns="http://www.w3.org/2000/svg" width="11.04mm" height="11.04mm" viewBox="0 0 31.28 31.28">
  <path
    d="M31.06,17.85a11.1,11.1,0,0,0,0-4.41l-1.69.3a13.83,13.83,0,0,0-.87-3.27l1.6-.63A11.32,11.32,0,0,0,27.9,6L26.55,7.09A13.4,13.4,0,0,0,24.2,4.74l1.06-1.35a11.23,11.23,0,0,0-3.82-2.21L20.86,2.8a13.77,13.77,0,0,0-3.26-.88l.25-1.7a11.1,11.1,0,0,0-4.41,0c0,.13.3,1.69.3,1.69a13.83,13.83,0,0,0-3.27.87l-.63-1.6A11.18,11.18,0,0,0,6,3.39L7.13,4.7A14.16,14.16,0,0,0,4.74,7.08L3.39,6A11.23,11.23,0,0,0,1.18,9.84l1.62.58a13.64,13.64,0,0,0-.88,3.26l-1.7-.24a11.1,11.1,0,0,0,0,4.41l1.69-.3a13.88,13.88,0,0,0,.87,3.26l-1.6.63a11.18,11.18,0,0,0,2.21,3.82l1.32-1.11a13.8,13.8,0,0,0,2.38,2.39L6,27.89A11.23,11.23,0,0,0,9.84,30.1l.59-1.62a13.52,13.52,0,0,0,3.26.88l-.25,1.7a11.1,11.1,0,0,0,4.41,0l-.3-1.69a14.24,14.24,0,0,0,3.26-.87l.63,1.6a11.18,11.18,0,0,0,3.82-2.21l-1.11-1.31a13.92,13.92,0,0,0,2.4-2.39l1.35,1.07a11.38,11.38,0,0,0,2.2-3.82l-1.61-.59a14,14,0,0,0,.87-3.25ZM15.64,4.1A11.64,11.64,0,0,1,25.09,9l-2.66,2.51.59.84-1.27.84V7.71H9.55v5.51l-1.29-.85.59-.84L6.19,9A11.54,11.54,0,0,1,15.64,4.1Zm3.11,14.4a1.34,1.34,0,0,0-1-.57,1,1,0,0,1,0-.11A5.34,5.34,0,0,1,17.2,19c-.05-.17-.36-.22-.36-.22a.89.89,0,0,1-.66.36c-.24,0-.09.2-.09.2s1.16.75.75,1.45.15.81.15.81c1-.1.75.6.75.6H16.31c-.32-.36-.51-.41-.42-.92a.71.71,0,0,0-.31-.75L14.9,21s.09-.16-.63-.05c-.49.07-.22.41-.22.41a.68.68,0,0,0,.6.34c.83,0,.64.73.64.73H14.22a6.37,6.37,0,0,1-.8-.73c-.29-.34-.49-.39-.22-.9S13,19.48,13,19.48c.27-.39.12-.63.12-.63a1.09,1.09,0,0,1,0-1.12c1.14-2.39-.14-3.05-.14-3.05s-.49-.37-.27.58a2.72,2.72,0,0,1-.59,2.09c-.14.38-.41.57-.16-.2a2,2,0,0,0-.25-1.55c-.14-.29-.65-1.21.78-1.36s1.6,2.23,1.31,3.4-.07.9-.07.9a3.53,3.53,0,0,1,.65-.34c.49-.22.26-1.05.26-1.05l.15-.16c-.26-.15-.41-.26-.41-.26l.28-.44-.41-.22.28-.37a1.49,1.49,0,0,0-.19-.34c.17-.23.16-.2.33-.46-.16-1.05,0-1,0-1,.3.08.4.21.46.2l.14.05c.19-.05.5-.19.55-.2a.54.54,0,0,1,.48.15,1.88,1.88,0,0,0,.69.12c.19,0,.09.22.09.22.21.27.12.56,0,.56s-.39-.2-.52-.17,0,.29,0,.29,0,0,.12,0l.33,0h.11s.08.31,0,.42a.48.48,0,0,0,0,.21c0,.07-.11-.2-.3-.17a1.26,1.26,0,0,1-.44.13c-.26,0,.46.14,1,.43a1.07,1.07,0,0,0,.8-1c0-.76.22-.37.29,0s.44.1.44.1.81-.34.5,0-.68.44-.49.63.6.5.23.46a1.63,1.63,0,0,0-1.05,0l-.31.18a.68.68,0,0,0-.24-.28,1.15,1.15,0,0,1,.29,1.27,1.09,1.09,0,0,0,.06-.33A1.93,1.93,0,0,0,19,17.14c.52-.23.65-.18.36.13s-.1.4.13.49.64.49.22.41S19,18,19,18.24,19.11,19,18.75,18.5ZM12,9.65a.38.38,0,0,1-.05-.19.4.4,0,0,1,.15-.31s0-.06-.11-.12-.1-.13,0-.1a.44.44,0,0,1,.2.18.38.38,0,0,1,.19,0,.37.37,0,0,1,.18,0,.47.47,0,0,1,.21-.18c.08,0,0,.1,0,.1s-.12.12-.12.12h0a.37.37,0,0,1,.16.31.41.41,0,0,1-.08.24v0a1,1,0,0,1,.37.69,4,4,0,0,0,.6,1.23s.18.4-.32,0a4.14,4.14,0,0,1-.75-.78h-.48a3.41,3.41,0,0,1-.75.77c-.5.38-.31,0-.31,0a4.45,4.45,0,0,0,.6-1.23A1.06,1.06,0,0,1,12,9.7.18.18,0,0,0,12,9.65Zm.12,2.22a.37.37,0,0,1-.05-.11h.54s0,.08,0,.11Zm.4.09s0,0,0,0-.14.3-.32,0l0,0ZM12,11.67l0-.11h.65a.36.36,0,0,1,0,.11Zm0-.19s0-.08,0-.12h.69a.49.49,0,0,1,0,.12Zm.61-.54a.83.83,0,0,1,0,.12H12l.05-.16v0Zm.06.21s0,.08,0,.13H12s0-.09,0-.13Zm2.68-1.5a.38.38,0,0,1-.05-.19.4.4,0,0,1,.15-.31s0-.06-.11-.12-.1-.13,0-.1a.44.44,0,0,1,.2.18.37.37,0,0,1,.18,0,.42.42,0,0,1,.2,0,.4.4,0,0,1,.2-.18c.08,0,0,.1,0,.1s-.12.12-.12.12h0a.37.37,0,0,1,.16.31A.41.41,0,0,1,16,9.7v0a1,1,0,0,1,.37.69,4,4,0,0,0,.6,1.23s.18.4-.31,0a3.53,3.53,0,0,1-.75-.78h-.49a3.41,3.41,0,0,1-.75.77c-.49.38-.31,0-.31,0A4.17,4.17,0,0,0,15,10.4a1.06,1.06,0,0,1,.37-.7A.18.18,0,0,0,15.32,9.65Zm.12,2.22a1.17,1.17,0,0,1,0-.11h.54a.36.36,0,0,1,0,.11Zm.41.09,0,0c-.06.1-.14.3-.32,0l0,0Zm-.49-.29,0-.11H16a.36.36,0,0,1,0,.11Zm0-.19s0-.08,0-.12H16v.12Zm.61-.54s0,.07,0,.12h-.62l.05-.16v0Zm.06.21s0,.08,0,.13h-.69s0-.09,0-.13Zm2.81-.21,0,0s0,0,0,0h.54a.34.34,0,0,1,0,.12h-.62l0-.12Zm.6.21s0,.08,0,.13h-.68a.53.53,0,0,1,0-.13Zm0,.21v.12h-.68v-.12Zm-.56.51a1.17,1.17,0,0,1-.05-.11h.55a1.17,1.17,0,0,1-.05.11Zm.41.09,0,0c-.06.1-.14.3-.32,0l0,0Zm-.48-.29a.36.36,0,0,1,0-.11h.66l0,.11Zm.54-.79h-.49a3.41,3.41,0,0,1-.75.77c-.49.38-.31,0-.31,0a4.17,4.17,0,0,0,.6-1.23,1.06,1.06,0,0,1,.37-.7v0a.31.31,0,0,1-.06-.19.4.4,0,0,1,.15-.31s0-.06-.11-.12-.1-.13,0-.1a.44.44,0,0,1,.2.18.39.39,0,0,1,.38,0,.4.4,0,0,1,.2-.18c.08,0,0,.1,0,.1s-.11.12-.11.12h0a.39.39,0,0,1,.15.31.41.41,0,0,1-.08.24v0a1,1,0,0,1,.37.69,4.29,4.29,0,0,0,.6,1.23s.19.4-.31,0A3.82,3.82,0,0,1,19.32,10.88ZM4.11,15.64a11.42,11.42,0,0,1,1-4.65l1,.93-.58.71,4,2.55v5.37l-1.09-.4-.67,2.1-.57-.34-.09,1.51A11.46,11.46,0,0,1,4.11,15.64ZM15.64,27.18a11.49,11.49,0,0,1-8.51-3.76l1.47-.66-.54-.33L9,21.57l.78.27.88-.35,4.83,3.31.09.07,5.08-3.38.88.35.78-.27.92.86-.54.33,1.48.66A11.51,11.51,0,0,1,15.64,27.18Zm8.52-3.76h0l-.1-1.51-.57.34-.67-2.1-1.07.39v-5.4l4-2.51-.58-.71,1-.93a11.26,11.26,0,0,1,1,4.65A11.51,11.51,0,0,1,24.16,23.42Z"
    fill="red" opacity="0.8" />
</svg>