<?xml version="1.0" encoding="UTF-8" standalone="no"?>
<!-- Created with Inkscape (http://www.inkscape.org/) -->

<svg
   width="123.99371mm"
   height="47.372097mm"
   viewBox="0 0 123.99371 47.372097"
   version="1.1"
   id="svg5"
   inkscape:version="1.1.1 (c3084ef, 2021-09-22)"
   sodipodi:docname="udem.svg"
   xmlns:inkscape="http://www.inkscape.org/namespaces/inkscape"
   xmlns:sodipodi="http://sodipodi.sourceforge.net/DTD/sodipodi-0.dtd"
   xmlns="http://www.w3.org/2000/svg"
   xmlns:svg="http://www.w3.org/2000/svg">
  <sodipodi:namedview
     id="namedview7"
     pagecolor="#000000"
     bordercolor="#666666"
     borderopacity="1.0"
     inkscape:pageshadow="2"
     inkscape:pageopacity="0"
     inkscape:pagecheckerboard="0"
     inkscape:document-units="mm"
     showgrid="false"
     inkscape:zoom="0.64052329"
     inkscape:cx="-86.647903"
     inkscape:cy="250.57637"
     inkscape:window-width="1312"
     inkscape:window-height="969"
     inkscape:window-x="0"
     inkscape:window-y="25"
     inkscape:window-maximized="0"
     inkscape:current-layer="g17"
     fit-margin-top="0"
     fit-margin-left="0"
     fit-margin-right="0"
     fit-margin-bottom="0" />
  <defs
     id="defs2" />
  <g
     inkscape:label="Layer 1"
     inkscape:groupmode="layer"
     id="layer1"
     transform="translate(-46.641534,-87.017706)">
    <g
       id="g17"
       transform="matrix(0.03527778,0,0,-0.03527778,31.184645,147.15856)">
      <path
         d="M 3420.63,1058.09 V 860.648 l 0.47,-7.457 -7.56,0.469 h -95.8 l -7.56,-0.469 0.45,7.457 v 180.082 c 0,52.5 -30.21,77.58 -67.5,77.58 -37.26,0 -67.5,-25.08 -67.5,-77.58 V 860.648 l 0.47,-7.457 -7.56,0.469 h -95.8 l -7.56,-0.469 0.45,7.457 v 180.082 c 0,98.02 79.47,177.49 177.5,177.49 41.72,0 79.98,-14.47 110.29,-38.54 l 2.15,-6.54 2.13,6.36 c 3.11,3.36 6.31,6.6 9.65,9.73 l 6.52,1.45 -6.01,2.79 c -26.19,29.2 -42.23,67.68 -42.23,109.99 v 393.85 l -0.45,7.47 7.56,-0.46 h 95.8 l 7.56,0.46 -0.47,-7.47 v -393.85 c 0,-42.72 24.61,-63.13 54.92,-63.13 30.33,0 54.92,20.41 54.92,63.13 v 393.85 l -0.44,7.47 7.55,-0.46 h 95.79 l 7.57,0.46 -0.47,-7.47 v -393.85 c 0,-42.31 -16.03,-80.79 -42.22,-109.99 l -6.02,-2.79 6.53,-1.45 c 3.33,-3.13 6.56,-6.37 9.66,-9.73 l 2.13,-6.36 2.13,6.54 c 30.31,24.07 68.6,38.54 110.29,38.54 98.03,0 177.5,-79.47 177.5,-177.49 V 860.648 l 0.47,-7.457 -7.57,0.469 h -95.79 l -7.55,-0.469 0.44,7.457 v 180.082 c 0,52.5 -30.23,77.58 -67.5,77.58 -37.28,0 -67.5,-25.08 -67.5,-77.58 V 860.648 l 0.47,-7.457 -7.57,0.469 h -95.79 l -7.55,-0.469 0.44,7.457 v 197.442 c 0,54.39 -31.28,80.37 -69.92,80.37 -38.61,0 -69.92,-25.98 -69.92,-80.37"
         style="fill:#ffffff;fill-opacity:0.80000001;fill-rule:nonzero;stroke:none"
         id="path19" />
      <path
         d="m 1261.73,414.43 c -14.05,-11 -31.36,-20.571 -57.69,-20.571 -34.7,0 -64.39,25.2 -64.39,93.539 0,70.411 24.28,103.032 63.85,103.032 26.68,0 45.43,-9.5 58.23,-23.891 z m 0,-46.871 h 101.36 v 10.64 l -37.52,8.942 v 344.968 h -104.14 v -11.8 l 40.3,-11.25 V 592.59 c -17.8,14.789 -44.46,26.961 -80.08,26.961 -63.28,0 -109.94,-55.492 -109.94,-132.723 0,-79.019 42.75,-124.879 110.5,-124.879 32.97,0 60.47,12.731 79.52,30.211 v -24.601"
         style="fill:#ffffff;fill-opacity:0.80000001;fill-rule:nonzero;stroke:none"
         id="path21" />
      <path
         d="M 2214.83,732.129 V 720.922 L 2176.76,710.84 V 388.852 l 38.07,-10.082 v -11.211 h -158.28 v 11.761 l 50.76,9.532 V 645.328 L 1988.99,367.559 h -27.44 l -116.3,278.89 V 388.852 l 48.96,-8.403 v -12.89 H 1779.7 v 11.211 l 32.48,9.511 V 711.41 l -32.48,9.512 v 11.207 h 102.01 l 113.28,-279.059 116.44,279.059 h 103.4"
         style="fill:#ffffff;fill-opacity:0.80000001;fill-rule:nonzero;stroke:none"
         id="path23" />
      <path
         d="m 2373.91,601.641 c 43.67,0 66.64,-48.731 66.64,-110.313 0,-61.039 -22.97,-111.449 -66.64,-111.449 -43.12,0 -66.64,50.41 -66.64,111.449 0,61.012 23.52,110.313 66.64,110.313 z m 0,17.91 c -71.68,0 -136.07,-49.84 -136.07,-128.789 0,-76.723 64.96,-128.793 136.07,-128.793 71.68,0 136.64,52.07 136.64,128.793 0,78.949 -64.96,128.789 -136.64,128.789"
         style="fill:#ffffff;fill-opacity:0.80000001;fill-rule:nonzero;stroke:none"
         id="path25" />
      <path
         d="m 3692.47,408.441 c -12.87,-8.402 -24.08,-16.8 -44.24,-16.8 -32.48,-0.563 -41.44,19.609 -41.44,43.129 0,24.082 16.25,40.308 45.91,45.351 l 39.77,4.488 z m 0,134.957 V 501.41 l -56.56,-2.808 c -54.89,-1.68 -89.05,-31.352 -89.05,-72.231 0,-41.453 30.81,-64.402 71.69,-64.402 33.61,0 57.69,16.242 73.92,27.992 v -22.402 h 92.81 v 10.652 l -30.09,8.961 V 554.02 c 0,36.41 -24.09,65.531 -78.4,65.531 -55.43,0 -90.16,-15.68 -109.75,-24.082 v -57.68 h 27.72 l 9.16,47.949 c 6.36,2.703 23.55,8.641 51.03,6.371 33.01,-2.711 36.95,-25.757 37.52,-48.711"
         style="fill:#ffffff;fill-opacity:0.80000001;fill-rule:nonzero;stroke:none"
         id="path27" />
      <path
         d="m 3952.93,378.199 v -10.64 h -138.87 v 10.64 l 37.52,8.961 v 323.641 l -37.52,9.508 v 11.82 h 101.35 V 387.16 l 37.52,-8.961"
         style="fill:#ffffff;fill-opacity:0.80000001;fill-rule:nonzero;stroke:none"
         id="path29" />
      <path
         d="m 742.691,1195.82 -54.32,10.64 v 11.75 h 126.027 v -11.2 L 775.77,1195.82 V 975.328 c 0,-91.738 -50.008,-128.969 -152.5,-128.969 -105.008,0 -147.598,40.2 -147.598,123.211 v 227.93 l -37.524,9.51 v 11.2 h 161.293 v -12.31 l -54.89,-9.52 V 972.93 c 0,-67.621 23.027,-100.809 93.519,-100.809 76.45,0 104.621,34.438 104.621,106.938 v 216.761"
         style="fill:#ffffff;fill-opacity:0.80000001;fill-rule:nonzero;stroke:none"
         id="path31" />
      <path
         d="m 959.629,864.301 v -10.653 h -136.07 v 10.653 l 36.953,8.937 v 208.332 l -33.59,9.53 v 11.72 h 97.437 v -38.05 c 11.192,9.51 46.469,40.88 91.831,40.88 47.03,0 71.12,-26.31 71.12,-72.25 V 873.809 l 35.84,-8.957 V 853.648 H 990.988 v 11.204 l 33.032,8.386 v 152.902 c 0,24.08 -7.27,45.35 -37.508,45.35 -26.883,0 -54.321,-19.05 -62.153,-24.09 V 873.238 l 35.27,-8.937"
         style="fill:#ffffff;fill-opacity:0.80000001;fill-rule:nonzero;stroke:none"
         id="path33" />
      <path
         d="m 1246.72,873.238 36.96,-8.937 v -10.653 h -138.32 v 10.653 l 37.52,8.937 v 208.322 l -33.59,9.53 v 11.72 h 97.43 V 873.238"
         style="fill:#ffffff;fill-opacity:0.80000001;fill-rule:nonzero;stroke:none"
         id="path35" />
      <path
         d="m 1250.08,1188.54 c 0,-19.04 -16.8,-34.73 -36.95,-34.73 -19.61,0 -36.97,15.69 -36.97,34.73 0,19.03 17.36,35.27 36.97,35.27 20.15,0 36.95,-16.24 36.95,-35.27"
         style="fill:#ffffff;fill-opacity:0.80000001;fill-rule:nonzero;stroke:none"
         id="path37" />
      <path
         d="m 2346.65,873.238 36.97,-8.937 V 853.648 H 2245.3 v 10.653 l 37.52,8.937 v 208.322 l -33.59,9.53 v 11.72 h 97.42 V 873.238"
         style="fill:#ffffff;fill-opacity:0.80000001;fill-rule:nonzero;stroke:none"
         id="path39" />
      <path
         d="m 2350.01,1188.54 c 0,-19.04 -16.8,-34.73 -36.95,-34.73 -19.59,0 -36.96,15.69 -36.96,34.73 0,19.03 17.37,35.27 36.96,35.27 20.15,0 36.95,-16.24 36.95,-35.27"
         style="fill:#ffffff;fill-opacity:0.80000001;fill-rule:nonzero;stroke:none"
         id="path41" />
      <path
         d="m 1303.89,1085.47 -17.93,7.27 v 10.07 h 120.97 v -10.07 l -38.65,-9.52 55.54,-151.732 55.09,152.852 -33.61,8.4 v 10.07 h 82.88 v -10.07 l -20.16,-9.52 -94.83,-233.49 h -20.73 l -88.57,235.74"
         style="fill:#ffffff;fill-opacity:0.80000001;fill-rule:nonzero;stroke:none"
         id="path43" />
      <path
         d="m 1703.84,1013.24 h -99.11 c 5.59,42.56 22.39,73.93 52.07,73.93 33.6,0 44.8,-39.2 47.04,-73.93 z m -101.92,-19.592 h 164.65 c -1.69,68.872 -37.53,111.992 -109.77,111.992 -71.11,0 -123.75,-61.6 -123.75,-128.788 0,-77.852 50.96,-128.801 124.32,-128.801 62.71,0 95.19,24.64 114.23,38.629 l -10.64,16.808 c -14.55,-8.957 -43.67,-28.566 -91.84,-25.758 -48.16,3.36 -72.24,53.75 -67.2,115.918"
         style="fill:#ffffff;fill-opacity:0.80000001;fill-rule:nonzero;stroke:none"
         id="path45" />
      <path
         d="m 2195.24,1092.77 -5.59,-61.05 h -22.97 l -5.6,41.44 c -8.4,4.47 -19.59,14 -44.24,14 -20.15,0 -35.84,-10.64 -35.84,-32.48 0,-25.76 28.56,-35.84 57.13,-48.73 27.44,-11.751 72.25,-28.552 72.25,-72.79 0,-50.39 -41.45,-85.121 -91.29,-85.121 -45.92,0 -72.82,10.652 -80.65,13.441 l -4.47,67.75 23.52,2.25 13.43,-45.921 c 6.72,-5.039 25.2,-19.59 47.6,-19.039 31.93,0 47.05,16.8 47.05,40.878 0,28.571 -39.76,40.883 -66.09,53.204 -24.63,11.757 -62.72,22.41 -62.72,73.358 0,41.99 34.73,71.68 81.76,71.68 40.33,0 65.53,-9.51 76.72,-12.87"
         style="fill:#ffffff;fill-opacity:0.80000001;fill-rule:nonzero;stroke:none"
         id="path47" />
      <path
         d="m 2807.94,1185.16 -24.08,35.84 -85.67,-67.19 13.99,-20.16 95.76,51.51"
         style="fill:#ffffff;fill-opacity:0.80000001;fill-rule:nonzero;stroke:none"
         id="path49" />
      <path
         d="m 2760.9,1013.24 h -99.12 c 5.6,42.56 22.4,73.93 52.07,73.93 33.61,0 44.8,-39.2 47.05,-73.93 z m -101.93,-19.592 h 164.64 c -1.68,68.872 -37.51,111.992 -109.76,111.992 -71.11,0 -123.75,-61.6 -123.75,-128.788 0,-77.852 50.96,-128.801 124.32,-128.801 62.71,0 95.19,24.64 114.23,38.629 l -10.64,16.808 c -14.55,-8.957 -43.67,-28.566 -91.84,-25.758 -48.16,3.36 -72.24,53.75 -67.2,115.918"
         style="fill:#ffffff;fill-opacity:0.80000001;fill-rule:nonzero;stroke:none"
         id="path51" />
      <path
         d="m 1977.31,1105.25 c -35.88,0 -61.7,-28.79 -76.27,-61.19 h -1.15 v 58.75 h -101.37 v -10.31 l 37.52,-10.94 V 873.238 l -37.52,-8.949 v -10.641 h 155.68 v 12.321 l -54.31,8.953 v 141.438 c 14.88,32.7 36.81,45.96 50.74,45.96 10.43,0 14.36,-2.13 22.48,-9.08 2.89,-2.33 13.61,-5.41 20,-2.5 12.17,5.21 15.51,14.16 15.51,27.24 0,14.42 -13.91,27.27 -31.31,27.27"
         style="fill:#ffffff;fill-opacity:0.80000001;fill-rule:nonzero;stroke:none"
         id="path53" />
      <path
         d="m 2671.76,378.199 v -10.64 h -136.09 v 10.64 l 36.97,8.961 V 595.469 L 2539.05,605 v 11.719 h 97.42 v -38.051 c 11.21,9.512 46.48,40.883 91.83,40.883 47.05,0 71.14,-26.313 71.14,-72.25 v -159.59 l 35.84,-8.941 v -11.211 h -132.17 v 11.211 l 33.05,8.39 v 152.879 c 0,24.082 -7.29,45.352 -37.53,45.352 -26.87,0 -54.31,-19.051 -62.16,-24.082 V 387.16 l 35.29,-8.961"
         style="fill:#ffffff;fill-opacity:0.80000001;fill-rule:nonzero;stroke:none"
         id="path55" />
      <path
         d="m 3230.81,619.16 c -35.86,0 -61.7,-28.789 -76.27,-61.191 h -1.15 v 58.75 H 3052.04 V 606.41 l 37.52,-10.941 V 387.172 l -37.52,-8.973 v -10.64 h 155.66 v 12.32 l -54.31,8.973 V 530.27 c 14.88,32.699 36.81,45.96 50.74,45.96 10.45,0 14.36,-2.128 22.48,-9.082 2.91,-2.328 13.61,-5.41 20,-2.5 12.19,5.211 15.53,14.161 15.53,27.25 0,14.411 -13.93,27.262 -31.33,27.262"
         style="fill:#ffffff;fill-opacity:0.80000001;fill-rule:nonzero;stroke:none"
         id="path57" />
      <path
         d="m 2570.61,881.559 c -9.37,-6.25 -18.97,-10.821 -33.12,-10.821 -22.5,0 -29.73,16.453 -29.73,53.321 v 156.911 l 63.83,9.54 v 12.3 h -63.83 v 115.41 h -20.84 c -4.22,-66.06 -27.56,-109.38 -86.51,-115.41 h -9.7 v -12.3 l 53.2,-9.54 V 920.738 c 0,-50.84 12.33,-72.699 59.92,-72.699 34.28,0 61.78,12.902 73.03,23.52 l -6.25,10"
         style="fill:#ffffff;fill-opacity:0.80000001;fill-rule:nonzero;stroke:none"
         id="path59" />
      <path
         d="m 3022.92,395.488 c -9.37,-6.25 -18.95,-10.84 -33.12,-10.84 -22.5,0 -29.73,16.473 -29.73,53.34 v 156.903 l 63.85,9.531 v 12.297 h -63.85 v 115.41 h -20.84 c -4.22,-66.051 -27.56,-109.367 -86.51,-115.41 h -9.68 v -12.297 l 53.18,-9.531 V 434.648 c 0,-50.839 12.33,-72.679 59.92,-72.679 34.3,0 61.78,12.902 73.03,23.519 l -6.25,10"
         style="fill:#ffffff;fill-opacity:0.80000001;fill-rule:nonzero;stroke:none"
         id="path61" />
      <path
         d="m 1552.51,527.148 h -99.12 c 5.61,42.563 22.4,73.911 52.09,73.911 33.59,0 44.78,-39.2 47.03,-73.911 z M 1450.6,507.539 h 164.62 c -1.67,68.891 -37.51,112.012 -109.74,112.012 -71.14,0 -123.78,-61.602 -123.78,-128.789 0,-77.852 50.96,-128.813 124.33,-128.813 62.71,0 95.19,24.653 114.23,38.641 l -10.64,16.808 c -14.55,-8.957 -43.67,-28.57 -91.84,-25.757 -48.14,3.359 -72.22,53.75 -67.18,115.898"
         style="fill:#ffffff;fill-opacity:0.80000001;fill-rule:nonzero;stroke:none"
         id="path63" />
      <path
         d="m 3438.76,527.148 h -99.12 c 5.6,42.563 22.4,73.93 52.07,73.93 33.61,0 44.8,-39.199 47.05,-73.93 z m 47.03,171.911 -24.08,35.839 -85.66,-67.179 13.98,-20.16 z m -148.96,-191.5 h 164.64 c -1.67,68.871 -37.51,111.992 -109.76,111.992 -71.11,0 -123.75,-61.602 -123.75,-128.789 0,-77.832 50.96,-128.793 124.32,-128.793 62.71,0 95.19,24.633 114.23,38.64 l -10.64,16.789 c -14.55,-8.957 -43.67,-28.546 -91.84,-25.757 -48.16,3.359 -72.24,53.769 -67.2,115.918"
         style="fill:#ffffff;fill-opacity:0.80000001;fill-rule:nonzero;stroke:none"
         id="path65" />
    </g>
  </g>
</svg>
